<svg width="21" height="20" viewBox="0 0 21 20" fill="none" xmlns="http://www.w3.org/2000/svg">
<g id="solid" clip-path="url(#clip0_4628_79955)">
<g id="Vector">
<path fill-rule="evenodd" clip-rule="evenodd" d="M13.0457 2H6.3969C5.83025 1.9995 5.27785 2.17539 4.8182 2.50267C4.35854 2.82996 4.015 3.29199 3.8364 3.82311L2.6052 7.47111C2.2778 7.60641 1.9982 7.83429 1.80156 8.12609C1.60492 8.41789 1.5 8.76059 1.5 9.11111V13.5556C1.5 14.2116 1.8636 14.7787 2.4 15.0871V17.1111C2.4 17.3469 2.49482 17.573 2.6636 17.7397C2.83239 17.9064 3.06131 18 3.3 18H4.2C4.43869 18 4.66761 17.9064 4.8364 17.7397C5.00518 17.573 5.1 17.3469 5.1 17.1111V15.3333H10.2032C10.0668 15.1301 9.94101 14.918 9.82573 14.6979C9.39206 13.8962 9.41179 13.0116 9.76437 12.2553L9.76552 12.2529C10.125 11.4845 10.75 11.0028 11.4088 10.7457C11.2936 10.6463 11.1841 10.5426 11.0811 10.4342L11.0803 10.4334C10.2554 9.56501 9.81344 8.49977 9.74718 7.33333H4.5483L5.5428 4.38578C5.60251 4.20871 5.71714 4.05469 5.87044 3.94556C6.02374 3.83644 6.20793 3.77773 6.3969 3.77778H10.9237C11.1118 3.56924 11.3231 3.37366 11.5581 3.19281C11.997 2.85507 12.4636 2.56923 12.9564 2.34914C12.9789 2.23018 13.0087 2.11366 13.0457 2ZM4.13324 12.565C4.29706 12.6321 4.47266 12.6666 4.65 12.6667C5.00816 12.6668 5.3517 12.5264 5.60504 12.2763C5.85839 12.0263 6.00078 11.6871 6.0009 11.3333C6.00102 10.9796 5.85885 10.6403 5.60568 10.3901C5.35251 10.1399 5.00906 9.99923 4.6509 9.99911C4.47356 9.99905 4.29794 10.0335 4.13407 10.1005C3.9702 10.1674 3.8213 10.2656 3.69586 10.3895C3.57041 10.5133 3.47089 10.6603 3.40297 10.8221C3.33505 10.9839 3.30006 11.1573 3.3 11.3324C3.29994 11.5076 3.33481 11.6811 3.40262 11.8429C3.47044 12.0047 3.56986 12.1518 3.69522 12.2757C3.82058 12.3996 3.96942 12.4979 4.13324 12.565Z" fill="white"/>
<path d="M11.59 13.7556C11.6503 13.8716 11.7138 13.9831 11.7806 14.0902L11.7752 14.0815C11.7103 13.9771 11.6486 13.8684 11.59 13.7556Z" fill="white"/>
<path d="M11.8031 14.1259L11.7977 14.1173C12.0019 14.4396 12.236 14.7207 12.5 14.9604C12.3104 14.7882 12.1362 14.5948 11.9774 14.38C11.9171 14.2983 11.859 14.2137 11.8031 14.1259Z" fill="white"/>
<path d="M15.8965 18C15.616 18 15.3807 17.9147 15.1906 17.744C15.0012 17.5739 14.9065 17.363 14.9065 17.1111V16.0889C14.164 15.9407 13.5122 15.6815 12.9512 15.3111C12.3902 14.9407 11.9365 14.4222 11.59 13.7556C11.4745 13.5482 11.4702 13.3298 11.5771 13.1004C11.6847 12.8705 11.8787 12.7037 12.1592 12.6C12.3902 12.5111 12.6295 12.515 12.877 12.6116C13.1245 12.7076 13.3142 12.8667 13.4462 13.0889C13.7267 13.5333 14.0815 13.8705 14.5105 14.1004C14.9395 14.3298 15.4675 14.4444 16.0945 14.4444C16.771 14.4444 17.3445 14.3076 17.8151 14.0338C18.285 13.7594 18.52 13.3333 18.52 12.7556C18.52 12.237 18.3385 11.8258 17.9755 11.5218C17.6125 11.2184 16.771 10.8741 15.451 10.4889C14.032 10.0889 13.0585 9.61126 12.5305 9.056C12.0025 8.50015 11.7385 7.82222 11.7385 7.02222C11.7385 6.05926 12.085 5.31111 12.778 4.77778C13.471 4.24444 14.1805 3.94074 14.9065 3.86667V2.88889C14.9065 2.63704 15.0012 2.42578 15.1906 2.25511C15.3807 2.08504 15.616 2 15.8965 2C16.177 2 16.4123 2.08504 16.6024 2.25511C16.7918 2.42578 16.8865 2.63704 16.8865 2.88889V3.86667C17.5135 3.95556 18.058 4.13718 18.52 4.41156C18.982 4.68533 19.3615 5.02222 19.6585 5.42222C19.807 5.61481 19.836 5.82963 19.7456 6.06667C19.6545 6.3037 19.4687 6.47407 19.1882 6.57778C18.9572 6.66667 18.718 6.67022 18.4705 6.58844C18.223 6.50726 17.992 6.36296 17.7775 6.15556C17.563 5.94815 17.3115 5.78874 17.0231 5.67733C16.734 5.56652 16.375 5.51111 15.946 5.51111C15.22 5.51111 14.6672 5.6557 14.2877 5.94489C13.9082 6.23348 13.7185 6.59259 13.7185 7.02222C13.7185 7.51111 13.966 7.8963 14.461 8.17778C14.956 8.45926 15.814 8.75556 17.035 9.06667C18.1735 9.36296 19.0358 9.83319 19.6219 10.4773C20.2073 11.1221 20.5 11.8667 20.5 12.7111C20.5 13.763 20.1535 14.563 19.4605 15.1111C18.7675 15.6593 17.9095 16 16.8865 16.1333V17.1111C16.8865 17.363 16.7918 17.5739 16.6024 17.744C16.4123 17.9147 16.177 18 15.8965 18Z" fill="white"/>
</g>
</g>
<defs>
<clipPath id="clip0_4628_79955">
<rect width="20" height="20" fill="white" transform="translate(0.5)"/>
</clipPath>
</defs>
</svg>
