<svg width="21" height="20" viewBox="0 0 21 20" fill="none" xmlns="http://www.w3.org/2000/svg">
<g id="solid" clip-path="url(#clip0_4628_27190)">
<path id="Vector" fill-rule="evenodd" clip-rule="evenodd" d="M17.6956 7.47111L16.4644 3.82311C16.2858 3.29199 15.9422 2.82996 15.4826 2.50268C15.0229 2.17539 14.4705 1.99951 13.9039 2H5.69768C5.13103 1.99951 4.57863 2.17539 4.11898 2.50268C3.65932 2.82996 3.31578 3.29199 3.13718 3.82311L1.90598 7.47111C1.57858 7.60642 1.29899 7.83429 1.10234 8.12609C0.905697 8.41789 0.800781 8.76059 0.800781 9.11111V13.5556C0.800781 14.2116 1.16438 14.7787 1.70078 15.0871V17.1111C1.70078 17.3469 1.7956 17.573 1.96439 17.7397C2.13317 17.9064 2.36209 18 2.60078 18H3.50078C3.73948 18 3.96839 17.9064 4.13718 17.7397C4.30596 17.573 4.40078 17.3469 4.40078 17.1111V15.3333H8.46954L8.69845 13.9299L6.99937 12.1897C6.81771 12.0038 6.61661 11.798 6.4639 11.61C6.31438 11.426 6.02275 11.0418 5.95942 10.4979C5.88728 9.87838 6.09425 9.25884 6.52428 8.80709C6.9018 8.4105 7.3658 8.27874 7.59592 8.22153C7.83092 8.16311 8.1154 8.11947 8.37234 8.08006L10.6197 7.73466L10.8081 7.33334H3.84908L4.84358 4.38578C4.9033 4.20871 5.01793 4.05469 5.17123 3.94557C5.32452 3.83644 5.50871 3.77774 5.69768 3.77778H13.903C14.0296 3.77778 14.1516 3.80374 14.2626 3.85139C14.4191 3.88665 14.5724 3.94005 14.7195 4.01159C15.2381 4.26392 15.5088 4.70051 15.6288 4.90583C15.7572 5.12521 15.8868 5.40163 16.007 5.65791L16.9819 7.73466C16.9819 7.73466 17.501 8 17.6956 7.47111ZM3.95078 12.6667C3.77344 12.6666 3.59784 12.6321 3.43402 12.565C3.2702 12.4979 3.12136 12.3996 2.996 12.2757C2.87064 12.1518 2.77122 12.0047 2.70341 11.8429C2.63559 11.6811 2.60072 11.5076 2.60078 11.3324C2.60084 11.1573 2.63583 10.9839 2.70375 10.8221C2.77167 10.6603 2.87119 10.5133 2.99664 10.3895C3.12208 10.2656 3.27099 10.1674 3.43485 10.1005C3.59872 10.0335 3.77434 9.99905 3.95168 9.99911C4.30984 9.99923 4.65329 10.1399 4.90646 10.3901C5.15964 10.6403 5.3018 10.9796 5.30168 11.3333C5.30156 11.6871 5.15917 12.0263 4.90583 12.2763C4.65248 12.5264 4.30894 12.6668 3.95078 12.6667ZM13.5381 5.36046C13.3475 5.45318 13.2089 5.74854 12.9316 6.33926L11.6376 9.0958L8.646 9.55559H8.64599C8.04977 9.64723 7.75166 9.69305 7.61054 9.8413C7.48767 9.97038 7.42854 10.1474 7.44915 10.3244C7.47282 10.5277 7.68353 10.7435 8.10495 11.1751L10.3006 13.4239L9.79291 16.5365C9.69087 17.1621 9.63985 17.4749 9.74195 17.6576C9.83077 17.8165 9.98693 17.9265 10.1665 17.9566C10.3729 17.9913 10.6503 17.8379 11.205 17.5312L13.8006 16.0958L16.3962 17.5312L16.3963 17.5312C16.951 17.8379 17.2283 17.9913 17.4347 17.9566C17.6143 17.9265 17.7704 17.8165 17.8593 17.6576C17.9614 17.4749 17.9103 17.1621 17.8083 16.5365L17.3006 13.4239L19.4963 11.1751C19.9177 10.7435 20.1284 10.5277 20.1521 10.3244C20.1727 10.1474 20.1135 9.97038 19.9907 9.8413C19.8495 9.69305 19.5514 9.64723 18.9552 9.55559L15.9636 9.0958L14.6696 6.33926C14.3923 5.74854 14.2537 5.45318 14.0631 5.36046C13.8974 5.27985 13.7038 5.27985 13.5381 5.36046Z" fill="url(#paint0_linear_4628_27190)"/>
</g>
<defs>
<linearGradient id="paint0_linear_4628_27190" x1="1.19904" y1="2.08572" x2="19.7014" y2="1.57473" gradientUnits="userSpaceOnUse">
<stop stop-color="#095DFF"/>
<stop offset="1" stop-color="#A953FF"/>
</linearGradient>
<clipPath id="clip0_4628_27190">
<rect width="20" height="20" fill="white" transform="translate(0.5)"/>
</clipPath>
</defs>
</svg>
