<svg width="20" height="20" viewBox="0 0 20 20" fill="none" xmlns="http://www.w3.org/2000/svg">
<g id="solid">
<path id="Vector" d="M17.8948 7.47111L16.6636 3.82311C16.485 3.29198 16.1415 2.82996 15.6818 2.50267C15.2221 2.17539 14.6697 1.9995 14.1031 2H5.8969C5.33025 1.9995 4.77785 2.17539 4.3182 2.50267C3.85854 2.82996 3.515 3.29198 3.3364 3.82311L2.1052 7.47111C1.7778 7.60641 1.4982 7.83429 1.30156 8.12609C1.10492 8.41789 1 8.76059 1 9.11111V13.5556C1 14.2116 1.3636 14.7787 1.9 15.0871V17.1111C1.9 17.3469 1.99482 17.573 2.1636 17.7397C2.33239 17.9064 2.56131 18 2.8 18H3.7C3.93869 18 4.16761 17.9064 4.3364 17.7397C4.50518 17.573 4.6 17.3469 4.6 17.1111V15.3333H15.4V17.1111C15.4 17.3469 15.4948 17.573 15.6636 17.7397C15.8324 17.9064 16.0613 18 16.3 18H17.2C17.4387 18 17.6676 17.9064 17.8364 17.7397C18.0052 17.573 18.1 17.3469 18.1 17.1111V15.0871C18.3731 14.9325 18.6 14.7094 18.758 14.4406C18.916 14.1717 18.9995 13.8664 19 13.5556V9.11111C19 8.76059 18.8951 8.41789 18.6984 8.12609C18.5018 7.83429 18.2222 7.60641 17.8948 7.47111ZM5.8969 3.77778H14.1022C14.4901 3.77778 14.8339 4.02133 14.9563 4.38578L15.9517 7.33333H4.0483L5.0428 4.38578C5.10251 4.20871 5.21714 4.05469 5.37044 3.94556C5.52374 3.83644 5.70793 3.77773 5.8969 3.77778ZM4.15 12.6667C3.97266 12.6666 3.79706 12.6321 3.63324 12.565C3.46942 12.4979 3.32058 12.3996 3.19522 12.2757C3.06986 12.1518 2.97044 12.0047 2.90262 11.8429C2.83481 11.681 2.79994 11.5076 2.8 11.3324C2.80006 11.1573 2.83505 10.9839 2.90297 10.8221C2.97089 10.6603 3.07041 10.5133 3.19586 10.3895C3.3213 10.2656 3.4702 10.1674 3.63407 10.1005C3.79794 10.0335 3.97356 9.99905 4.1509 9.99911C4.50906 9.99923 4.85251 10.1399 5.10568 10.3901C5.35885 10.6403 5.50102 10.9796 5.5009 11.3333C5.50078 11.6871 5.35839 12.0263 5.10504 12.2763C4.8517 12.5264 4.50816 12.6668 4.15 12.6667ZM15.85 12.6667C15.6727 12.6666 15.4971 12.6321 15.3332 12.565C15.1694 12.4979 15.0206 12.3996 14.8952 12.2757C14.7699 12.1518 14.6704 12.0047 14.6026 11.8429C14.5348 11.681 14.4999 11.5076 14.5 11.3324C14.5001 11.1573 14.535 10.9839 14.603 10.8221C14.6709 10.6603 14.7704 10.5133 14.8959 10.3895C15.0213 10.2656 15.1702 10.1674 15.3341 10.1005C15.4979 10.0335 15.6736 9.99905 15.8509 9.99911C16.2091 9.99923 16.5525 10.1399 16.8057 10.3901C17.0589 10.6403 17.201 10.9796 17.2009 11.3333C17.2008 11.6871 17.0584 12.0263 16.805 12.2763C16.5517 12.5264 16.2082 12.6668 15.85 12.6667Z" fill="url(#paint0_linear_4628_80006)"/>
</g>
<defs>
<linearGradient id="paint0_linear_4628_80006" x1="1.37037" y1="2.08572" x2="18.5788" y2="1.64375" gradientUnits="userSpaceOnUse">
<stop stop-color="#095DFF"/>
<stop offset="1" stop-color="#A953FF"/>
</linearGradient>
</defs>
</svg>
