<svg width="21" height="20" viewBox="0 0 21 20" fill="none" xmlns="http://www.w3.org/2000/svg">
<g id="solid" opacity="0.3">
<path id="Vector" d="M18.3948 7.47111L17.1636 3.82311C16.985 3.29198 16.6415 2.82996 16.1818 2.50267C15.7221 2.17539 15.1697 1.9995 14.6031 2H6.3969C5.83025 1.9995 5.27785 2.17539 4.8182 2.50267C4.35854 2.82996 4.015 3.29198 3.8364 3.82311L2.6052 7.47111C2.2778 7.60641 1.9982 7.83429 1.80156 8.12609C1.60492 8.41789 1.5 8.76059 1.5 9.11111V13.5556C1.5 14.2116 1.8636 14.7787 2.4 15.0871V17.1111C2.4 17.3469 2.49482 17.573 2.6636 17.7397C2.83239 17.9064 3.06131 18 3.3 18H4.2C4.43869 18 4.66761 17.9064 4.8364 17.7397C5.00518 17.573 5.1 17.3469 5.1 17.1111V15.3333H15.9V17.1111C15.9 17.3469 15.9948 17.573 16.1636 17.7397C16.3324 17.9064 16.5613 18 16.8 18H17.7C17.9387 18 18.1676 17.9064 18.3364 17.7397C18.5052 17.573 18.6 17.3469 18.6 17.1111V15.0871C18.8731 14.9325 19.1 14.7094 19.258 14.4406C19.416 14.1717 19.4995 13.8664 19.5 13.5556V9.11111C19.5 8.76059 19.3951 8.41789 19.1984 8.12609C19.0018 7.83429 18.7222 7.60641 18.3948 7.47111ZM6.3969 3.77778H14.6022C14.9901 3.77778 15.3339 4.02133 15.4563 4.38578L16.4517 7.33333H4.5483L5.5428 4.38578C5.60251 4.20871 5.71714 4.05469 5.87044 3.94556C6.02374 3.83644 6.20793 3.77773 6.3969 3.77778ZM4.65 12.6667C4.47266 12.6666 4.29706 12.6321 4.13324 12.565C3.96942 12.4979 3.82058 12.3996 3.69522 12.2757C3.56986 12.1518 3.47044 12.0047 3.40262 11.8429C3.33481 11.681 3.29994 11.5076 3.3 11.3324C3.30006 11.1573 3.33505 10.9839 3.40297 10.8221C3.47089 10.6603 3.57041 10.5133 3.69586 10.3895C3.8213 10.2656 3.9702 10.1674 4.13407 10.1005C4.29794 10.0335 4.47356 9.99905 4.6509 9.99911C5.00906 9.99923 5.35251 10.1399 5.60568 10.3901C5.85885 10.6403 6.00102 10.9796 6.0009 11.3333C6.00078 11.6871 5.85839 12.0263 5.60504 12.2763C5.3517 12.5264 5.00816 12.6668 4.65 12.6667ZM16.35 12.6667C16.1727 12.6666 15.9971 12.6321 15.8332 12.565C15.6694 12.4979 15.5206 12.3996 15.3952 12.2757C15.2699 12.1518 15.1704 12.0047 15.1026 11.8429C15.0348 11.681 14.9999 11.5076 15 11.3324C15.0001 11.1573 15.035 10.9839 15.103 10.8221C15.1709 10.6603 15.2704 10.5133 15.3959 10.3895C15.5213 10.2656 15.6702 10.1674 15.8341 10.1005C15.9979 10.0335 16.1736 9.99905 16.3509 9.99911C16.7091 9.99923 17.0525 10.1399 17.3057 10.3901C17.5589 10.6403 17.701 10.9796 17.7009 11.3333C17.7008 11.6871 17.5584 12.0263 17.305 12.2763C17.0517 12.5264 16.7082 12.6668 16.35 12.6667Z" fill="#242424"/>
</g>
</svg>
