<svg width="80" height="80" viewBox="0 0 80 80" fill="none" xmlns="http://www.w3.org/2000/svg">
<g id="solid">
<g id="Vector">
<path fill-rule="evenodd" clip-rule="evenodd" d="M50.182 8H23.5866C21.32 7.99802 19.1104 8.70157 17.2718 10.0107C15.4332 11.3198 14.059 13.1679 13.3446 15.2925L8.41982 29.8844C7.11022 30.4257 5.99184 31.3371 5.20526 32.5043C4.41869 33.6715 3.99902 35.0423 3.99902 36.4444V54.2222C3.99902 56.8462 5.45342 59.1147 7.59902 60.3484V68.4444C7.59902 69.3874 7.97831 70.2918 8.65344 70.9586C9.32857 71.6254 10.2442 72 11.199 72H14.799C15.7538 72 16.6695 71.6254 17.3446 70.9586C18.0197 70.2918 18.399 69.3874 18.399 68.4444V61.3333H38.812C38.2661 60.5204 37.7631 59.672 37.302 58.7917C35.5673 55.5847 35.6462 52.0463 37.0565 49.0213L37.0611 49.0114C38.4991 45.9382 40.999 44.0111 43.6341 42.9828C43.1733 42.5853 42.7356 42.1703 42.3233 41.7368L42.3204 41.7337C39.0208 38.26 37.2528 33.9991 36.9877 29.3333H16.1922L20.1702 17.5431C20.4091 16.8348 20.8676 16.2188 21.4808 15.7823C22.094 15.3457 22.8307 15.1109 23.5866 15.1111H41.6939C42.4464 14.277 43.2916 13.4946 44.2315 12.7712C45.987 11.4203 47.8533 10.2769 49.8247 9.39655C49.9144 8.92073 50.0339 8.45463 50.182 8ZM14.532 50.2599C15.1873 50.5282 15.8896 50.6664 16.599 50.6667C18.0317 50.6671 19.4058 50.1055 20.4192 49.1053C21.4326 48.1051 22.0021 46.7483 22.0026 45.3333C22.0031 43.9184 21.4344 42.5612 20.4217 41.5603C19.409 40.5595 18.0353 39.9969 16.6026 39.9964C15.8932 39.9962 15.1908 40.134 14.5353 40.4019C13.8798 40.6698 13.2842 41.0626 12.7824 41.5578C12.2807 42.053 11.8826 42.6411 11.6109 43.2883C11.3392 43.9355 11.1993 44.6292 11.199 45.3298C11.1988 46.0304 11.3383 46.7242 11.6095 47.3716C11.8808 48.0189 12.2785 48.6072 12.7799 49.1028C13.2813 49.5984 13.8767 49.9915 14.532 50.2599Z" fill="white"/>
<path d="M44.3589 55.0222C44.6001 55.4863 44.8543 55.9325 45.1215 56.3607L45.0997 56.3259C44.8404 55.9083 44.5936 55.4738 44.3589 55.0222Z" fill="white"/>
<path d="M45.2114 56.5035L45.1898 56.4692C46.0067 57.7584 46.9431 58.8826 47.999 59.8417C47.2406 59.1529 46.5438 58.379 45.9087 57.5199C45.6674 57.1934 45.4349 56.8546 45.2114 56.5035Z" fill="white"/>
<path d="M61.5849 72C60.4629 72 59.5218 71.6587 58.7615 70.976C58.0038 70.2957 57.6249 69.4518 57.6249 68.4444V64.3555C54.6549 63.763 52.0479 62.7259 49.8039 61.2444C47.5599 59.763 45.7449 57.6889 44.3589 55.0222C43.8969 54.1926 43.8797 53.3191 44.3074 52.4018C44.7377 51.4821 45.5137 50.8148 46.6357 50.4C47.5597 50.0444 48.5169 50.0598 49.5069 50.4462C50.4969 50.8302 51.2559 51.4667 51.7839 52.3556C52.9059 54.1333 54.3249 55.4821 56.0409 56.4018C57.7569 57.3191 59.8689 57.7778 62.377 57.7778C65.083 57.7778 67.3771 57.2302 69.2595 56.1351C71.1391 55.0376 72.079 53.3333 72.079 51.0222C72.079 48.9481 71.353 47.3031 69.901 46.0871C68.449 44.8735 65.083 43.4963 59.8029 41.9556C54.1269 40.3556 50.2329 38.445 48.1209 36.224C46.0089 34.0006 44.9529 31.2889 44.9529 28.0889C44.9529 24.237 46.3389 21.2444 49.1109 19.1111C51.8829 16.9778 54.7209 15.763 57.6249 15.4667V11.5556C57.6249 10.5482 58.0038 9.70312 58.7615 9.02045C59.5218 8.34015 60.4629 8 61.5849 8C62.707 8 63.6481 8.34015 64.4084 9.02044C65.1661 9.70311 65.545 10.5481 65.545 11.5556V15.4667C68.053 15.8222 70.231 16.5487 72.079 17.6462C73.927 18.7413 75.445 20.0889 76.633 21.6889C77.227 22.4593 77.3432 23.3185 76.9815 24.2667C76.6172 25.2148 75.874 25.8963 74.752 26.3111C73.828 26.6667 72.871 26.6809 71.881 26.3538C70.891 26.029 69.967 25.4519 69.109 24.6222C68.251 23.7926 67.2451 23.155 66.0914 22.7093C64.9351 22.2661 63.499 22.0444 61.7829 22.0444C58.8789 22.0444 56.6679 22.6228 55.1499 23.7796C53.6319 24.9339 52.8729 26.3704 52.8729 28.0889C52.8729 30.0444 53.8629 31.5852 55.8429 32.7111C57.8229 33.837 61.2549 35.0222 66.139 36.2667C70.693 37.4518 74.1422 39.3327 76.4865 41.9093C78.8282 44.4883 79.999 47.4667 79.999 50.8444C79.999 55.0519 78.613 58.2518 75.841 60.4444C73.069 62.637 69.637 64 65.545 64.5333V68.4444C65.545 69.4518 65.1661 70.2957 64.4084 70.976C63.6481 71.6587 62.707 72 61.5849 72Z" fill="white"/>
</g>
</g>
</svg>
