<svg width="16" height="17" viewBox="0 0 16 17" fill="none" xmlns="http://www.w3.org/2000/svg">
<g id="solid">
<path id="Vector" fill-rule="evenodd" clip-rule="evenodd" d="M15.2008 12.854C15.2008 13.184 15.0629 13.5006 14.8174 13.7339C14.5719 13.9673 14.2389 14.0984 13.8917 14.0984H2.10987C1.76268 14.0984 1.42971 13.9673 1.18421 13.7339C0.938703 13.5006 0.800781 13.184 0.800781 12.854V6.00955C0.800781 5.6795 0.938703 5.36297 1.18421 5.12959C1.42971 4.89621 1.76268 4.7651 2.10987 4.7651H4.72805L6.03714 2.89844H9.96442L11.2735 4.7651H13.8917C14.2389 4.7651 14.5719 4.89621 14.8174 5.12959C15.0629 5.36297 15.2008 5.6795 15.2008 6.00955V12.854ZM8.00053 11.6095C9.44651 11.6095 10.6187 10.4952 10.6187 9.12066C10.6187 7.74608 9.44651 6.63177 8.00053 6.63177C6.55454 6.63177 5.38234 7.74608 5.38234 9.12066C5.38234 10.4952 6.55454 11.6095 8.00053 11.6095Z" stroke="url(#paint0_linear_4628_79452)" stroke-width="1.2" stroke-linecap="round" stroke-linejoin="round"/>
</g>
<defs>
<linearGradient id="paint0_linear_4628_79452" x1="1.09708" y1="2.95844" x2="14.861" y2="2.55444" gradientUnits="userSpaceOnUse">
<stop stop-color="#095DFF"/>
<stop offset="1" stop-color="#A953FF"/>
</linearGradient>
</defs>
</svg>
