<svg width="14" height="14" viewBox="0 0 14 14" fill="none" xmlns="http://www.w3.org/2000/svg">
<g id="solid" clip-path="url(#clip0_1547_522385)">
<path id="Vector" fill-rule="evenodd" clip-rule="evenodd" d="M11.8018 5.31387L10.9806 2.8806C10.8615 2.52633 10.6323 2.21815 10.3257 1.99984C10.0191 1.78154 9.65065 1.66422 9.27269 1.66455H3.79902C3.42106 1.66422 3.0526 1.78154 2.746 1.99984C2.43941 2.21815 2.21026 2.52633 2.09113 2.8806L1.2699 5.31387C1.05152 5.40412 0.865025 5.55611 0.73386 5.75075C0.602695 5.94538 0.532715 6.17397 0.532715 6.40778V9.37229C0.532715 9.80985 0.775242 10.1881 1.13303 10.3939V11.7439C1.13303 11.9011 1.19628 12.052 1.30886 12.1631C1.42144 12.2743 1.57413 12.3368 1.73334 12.3368H2.33366C2.49287 12.3368 2.64556 12.2743 2.75814 12.1631C2.87072 12.052 2.93397 11.9011 2.93397 11.7439V10.5581H5.6479L5.80058 9.62198L4.66727 8.46127L4.66727 8.46126C4.5461 8.33724 4.41196 8.19994 4.31011 8.07457C4.21037 7.95182 4.01585 7.69555 3.97361 7.33278C3.92549 6.91955 4.06354 6.50631 4.35038 6.20498C4.60219 5.94046 4.91169 5.85257 5.06518 5.81441C5.22193 5.77544 5.41168 5.74634 5.58306 5.72005L7.08209 5.48966L7.20775 5.22197H2.56598L3.22933 3.2559C3.26916 3.13779 3.34562 3.03506 3.44787 2.96227C3.55012 2.88948 3.67298 2.85033 3.79902 2.85036H9.27209C9.35656 2.85036 9.4379 2.86767 9.51198 2.89946C9.61632 2.92298 9.7186 2.9586 9.81669 3.00632C10.1627 3.17462 10.3432 3.46583 10.4233 3.60279C10.5088 3.74911 10.5953 3.93347 10.6755 4.10441L10.6755 4.10443L11.3258 5.48966C11.3258 5.48966 11.672 5.66665 11.8018 5.31387ZM2.63381 8.77939C2.51552 8.77935 2.3984 8.7563 2.28913 8.71155C2.17986 8.66681 2.08058 8.60124 1.99696 8.5186C1.91334 8.43597 1.84703 8.33787 1.8018 8.22992C1.75656 8.12196 1.7333 8.00627 1.73334 7.88944C1.73338 7.77261 1.75672 7.65693 1.80203 7.54901C1.84733 7.44109 1.91371 7.34303 1.99739 7.26045C2.08106 7.17786 2.18038 7.11237 2.28968 7.06769C2.39898 7.02302 2.51612 7.00005 2.63441 7.00009C2.87331 7.00016 3.1024 7.09397 3.27127 7.26087C3.44014 7.42777 3.53497 7.65408 3.53489 7.89003C3.53481 8.12598 3.43983 8.35224 3.27084 8.51902C3.10186 8.68581 2.87271 8.77947 2.63381 8.77939ZM9.02886 3.9059C8.90173 3.96774 8.80925 4.16475 8.62428 4.55877L7.76118 6.39743L5.76573 6.70412H5.76572C5.36804 6.76524 5.16919 6.79581 5.07506 6.89469C4.99311 6.98079 4.95366 7.09886 4.96741 7.21692C4.9832 7.35253 5.12375 7.49648 5.40484 7.78437L5.40484 7.78437L6.86938 9.28432L6.53074 11.3605C6.46267 11.7778 6.42864 11.9864 6.49675 12.1083C6.55599 12.2143 6.66015 12.2877 6.77992 12.3078C6.9176 12.3308 7.1026 12.2285 7.47259 12.0239L9.20393 11.0665L10.9353 12.0239C11.3053 12.2285 11.4903 12.3308 11.6279 12.3078C11.7477 12.2877 11.8519 12.2143 11.9111 12.1083C11.9792 11.9864 11.9452 11.7778 11.8771 11.3605L11.5385 9.28432L13.003 7.78437C13.2841 7.49648 13.4247 7.35253 13.4405 7.21692C13.4542 7.09886 13.4148 6.98079 13.3328 6.89469C13.2387 6.79581 13.0398 6.76524 12.6421 6.70412L10.6467 6.39743L9.78358 4.55877C9.59862 4.16475 9.50614 3.96774 9.379 3.9059C9.26848 3.85213 9.13938 3.85213 9.02886 3.9059Z" fill="#797979"/>
</g>
<defs>
<clipPath id="clip0_1547_522385">
<rect width="13.3403" height="13.3403" fill="white" transform="translate(0.33252 0.330566)"/>
</clipPath>
</defs>
</svg>
