<svg width="21" height="20" viewBox="0 0 21 20" fill="none" xmlns="http://www.w3.org/2000/svg">
<g id="solid" opacity="0.3">
<path id="Vector" fill-rule="evenodd" clip-rule="evenodd" d="M5 2.5H7.66667C8.77124 2.5 9.66667 3.39543 9.66667 4.5V7.16667C9.66667 8.27124 8.77124 9.16667 7.66667 9.16667H5C3.89543 9.16667 3 8.27124 3 7.16667V4.5C3 3.39543 3.89543 2.5 5 2.5ZM13.332 2.5H15.9987C17.1033 2.5 17.9987 3.39543 17.9987 4.5V7.16667C17.9987 8.27124 17.1033 9.16667 15.9987 9.16667H13.332C12.2275 9.16667 11.332 8.27124 11.332 7.16667V4.5C11.332 3.39543 12.2275 2.5 13.332 2.5ZM15.9987 10.834H13.332C12.2275 10.834 11.332 11.7294 11.332 12.834V15.5007C11.332 16.6052 12.2275 17.5007 13.332 17.5007H15.9987C17.1033 17.5007 17.9987 16.6052 17.9987 15.5007V12.834C17.9987 11.7294 17.1033 10.834 15.9987 10.834ZM5 10.834H7.66667C8.77124 10.834 9.66667 11.7294 9.66667 12.834V15.5007C9.66667 16.6052 8.77124 17.5007 7.66667 17.5007H5C3.89543 17.5007 3 16.6052 3 15.5007V12.834C3 11.7294 3.89543 10.834 5 10.834Z" fill="#242424"/>
</g>
</svg>
