<svg width="14" height="14" viewBox="0 0 14 14" fill="none" xmlns="http://www.w3.org/2000/svg">
<g id="solid">
<path id="Vector" fill-rule="evenodd" clip-rule="evenodd" d="M2.64497 1.53218C2.916 1.26115 3.28359 1.10889 3.66688 1.10889H7.55781C7.64626 1.10889 7.73109 1.14402 7.79363 1.20657L11.6846 5.09749C11.7471 5.16004 11.7822 5.24487 11.7822 5.33332V11.4476C11.7822 11.8309 11.63 12.1985 11.359 12.4695C11.0879 12.7406 10.7203 12.8928 10.337 12.8928H3.66688C3.28359 12.8928 2.916 12.7406 2.64497 12.4695C2.37394 12.1985 2.22168 11.8309 2.22168 11.4476V2.55409C2.22168 2.1708 2.37394 1.8032 2.64497 1.53218ZM7.89131 2.24755L10.6436 4.99981L8.89184 4.99981C8.33926 4.99981 7.89131 4.55186 7.89131 3.99929V2.24755ZM4.6673 7.66786H9.33641C9.5206 7.66786 9.66991 7.81718 9.66991 8.00137C9.66991 8.18556 9.5206 8.33488 9.33641 8.33488H4.6673C4.4831 8.33488 4.33379 8.18556 4.33379 8.00137C4.33379 7.81718 4.4831 7.66786 4.6673 7.66786ZM9.33641 9.66891H4.6673C4.4831 9.66891 4.33379 9.81823 4.33379 10.0024C4.33379 10.1866 4.4831 10.3359 4.6673 10.3359H9.33641C9.5206 10.3359 9.66991 10.1866 9.66991 10.0024C9.66991 9.81823 9.5206 9.66891 9.33641 9.66891Z" fill="#797979"/>
</g>
</svg>
