<svg width="20" height="20" viewBox="0 0 20 20" fill="none" xmlns="http://www.w3.org/2000/svg">
<g id="solid" clip-path="url(#clip0_4628_79374)">
<path id="Vector" d="M7.00582 15.5332C7.74539 16.5867 8.61588 17.8268 9.64033 19.3119C9.81393 19.5627 10.186 19.5627 10.3596 19.3119L7.00582 15.5332ZM7.00582 15.5332C5.68488 13.6515 4.78159 12.3647 4.1647 11.339M7.00582 15.5332L4.1647 11.339M4.1647 11.339C3.68985 10.5494 3.40358 9.94373 3.23271 9.36675M4.1647 11.339L3.23271 9.36675M3.23271 9.36675C3.06298 8.79362 3 8.22474 3 7.5M3.23271 9.36675L3 7.5M3 7.5C3 3.63399 6.13399 0.5 10 0.5M3 7.5L10 0.5M10 0.5C13.866 0.5 17 3.63399 17 7.5M10 0.5L17 7.5M17 7.5C17 8.22474 16.937 8.79362 16.7673 9.36675M17 7.5L16.7673 9.36675M16.7673 9.36675C16.5964 9.94373 16.3102 10.5494 15.8353 11.339M16.7673 9.36675L15.8353 11.339M15.8353 11.339C15.2184 12.3647 14.3151 13.6515 12.9942 15.5332M15.8353 11.339L12.9942 15.5332M12.9942 15.5332C12.2546 16.5867 11.3841 17.8268 10.3597 19.3119L12.9942 15.5332ZM10 11.125C12.002 11.125 13.625 9.50204 13.625 7.5C13.625 5.49796 12.002 3.875 10 3.875C7.99796 3.875 6.375 5.49796 6.375 7.5C6.375 9.50204 7.99796 11.125 10 11.125Z" fill="#B9B9B9" stroke="#B9B9B9"/>
</g>
<defs>
<clipPath id="clip0_4628_79374">
<rect width="20" height="20" fill="white"/>
</clipPath>
</defs>
</svg>
