<svg width="14" height="14" viewBox="0 0 14 14" fill="none" xmlns="http://www.w3.org/2000/svg">
<g id="solid" clip-path="url(#clip0_4628_8899)">
<path id="Vector" d="M6.46045 13.7175C2.48746 7.95788 1.75 7.36676 1.75 5.25C1.75 2.3505 4.1005 0 7 0C9.8995 0 12.25 2.3505 12.25 5.25C12.25 7.36676 11.5125 7.95788 7.53955 13.7175C7.27882 14.0942 6.72115 14.0941 6.46045 13.7175ZM7 7.4375C8.20813 7.4375 9.1875 6.45813 9.1875 5.25C9.1875 4.04187 8.20813 3.0625 7 3.0625C5.79187 3.0625 4.8125 4.04187 4.8125 5.25C4.8125 6.45813 5.79187 7.4375 7 7.4375Z" fill="#A7A7A7"/>
</g>
<defs>
<clipPath id="clip0_4628_8899">
<rect width="14" height="14" fill="white"/>
</clipPath>
</defs>
</svg>
