<svg width="20" height="20" viewBox="0 0 20 20" fill="none" xmlns="http://www.w3.org/2000/svg">
<g id="solid" clip-path="url(#clip0_4594_27149)">
<path id="Vector" d="M9.22922 19.5965C3.55352 11.3684 2.5 10.5239 2.5 7.5C2.5 3.35785 5.85785 0 10 0C14.1421 0 17.5 3.35785 17.5 7.5C17.5 10.5239 16.4465 11.3684 10.7708 19.5965C10.3983 20.1345 9.60164 20.1345 9.22922 19.5965ZM10 10.625C11.7259 10.625 13.125 9.2259 13.125 7.5C13.125 5.7741 11.7259 4.375 10 4.375C8.2741 4.375 6.875 5.7741 6.875 7.5C6.875 9.2259 8.2741 10.625 10 10.625Z" fill="url(#paint0_linear_4594_27149)"/>
</g>
<defs>
<linearGradient id="paint0_linear_4594_27149" x1="2.80864" y1="0.107144" x2="17.1542" y2="-0.138483" gradientUnits="userSpaceOnUse">
<stop stop-color="#095DFF"/>
<stop offset="1" stop-color="#A953FF"/>
</linearGradient>
<clipPath id="clip0_4594_27149">
<rect width="20" height="20" fill="white"/>
</clipPath>
</defs>
</svg>
