<svg width="153" height="39" viewBox="0 0 153 39" fill="none" xmlns="http://www.w3.org/2000/svg">
<g id="logo_new_small 2" clip-path="url(#clip0_4628_79935)">
<path id="Vector" d="M25.4904 20.6904L22.8254 21.6966L24.1579 24.4194L27.9815 22.4661L30.4726 24.3602L33.8906 22.5845L12.1079 6.18887V33.8306L15.526 32.0549V28.8586L19.5812 26.787L18.3067 24.2418L15.468 26.1359V12.9957L25.4904 20.6904ZM18.5963 36.7901C23.231 36.7901 27.4601 34.8961 30.4726 31.759C32.5582 29.6281 34.1223 26.9054 34.8754 23.8867L30.2987 26.2543L27.8076 24.4194L17.1481 29.9241V33.1203L16.6846 33.3571L12.3396 35.5471C14.2514 36.3758 16.3949 36.7901 18.5963 36.7901ZM35.2809 21.5783C35.3389 20.9272 35.3968 20.2761 35.3968 19.625C35.3968 14.8898 33.5429 10.5689 30.4726 7.49103C27.4601 4.41316 23.231 2.45989 18.5963 2.45989C16.2211 2.45989 13.9038 2.9926 11.8183 3.93964L35.2809 21.5783ZM10.4279 4.64992C9.03751 5.41939 7.82091 6.36643 6.72018 7.49103C3.70769 10.5689 1.79591 14.8898 1.79591 19.625C1.79591 24.3602 3.64975 28.6811 6.72018 31.759C7.82091 32.8836 9.03751 33.8306 10.4279 34.6001V4.64992ZM36.961 22.8212C36.3238 26.787 34.4119 30.3384 31.7471 33.0612C28.387 36.4941 23.7524 38.625 18.5963 38.625C13.4404 38.625 8.80577 36.4941 5.44566 33.0612C2.08557 29.6281 0 24.8929 0 19.625C0 14.3571 2.08557 9.62188 5.44566 6.18887C8.80577 2.75584 13.4983 0.625 18.5963 0.625C23.6944 0.625 28.387 2.75584 31.7471 6.18887C35.1072 9.62188 37.1927 14.3571 37.1927 19.625C37.1927 20.7496 37.1348 21.815 36.961 22.8212Z" fill="white"/>
<path id="Vector_2" d="M53.0098 6.30708H57.7024L61.2941 18.0267H57.4706L56.9492 16.0734H53.2994L52.7781 18.0267H49.418L53.0098 6.30708ZM53.9367 13.5282H56.1961L55.0954 9.26659L53.9367 13.5282ZM62.4528 6.30708H67.8986C69.2308 6.30708 70.216 6.60303 70.8528 7.13574C71.4903 7.66844 71.7802 8.43794 71.7802 9.38496V9.44412C71.7802 10.8055 71.1427 11.6342 69.8104 11.9893C70.5052 12.1077 71.0848 12.4036 71.4903 12.8772C71.8958 13.3507 72.1278 13.9426 72.1278 14.7121V14.7713C72.1278 16.9613 70.7371 18.0267 67.8986 18.0267H62.5106V6.30708H62.4528ZM67.1454 15.5407C68.0721 15.5407 68.5354 15.1264 68.5354 14.2977V14.2385C68.5354 13.4691 68.0721 13.0548 67.0875 13.0548H65.9867V15.5407H67.1454ZM67.1454 10.8647C67.6087 10.8647 67.8986 10.8055 68.1299 10.6279C68.3041 10.4504 68.4198 10.2136 68.4198 9.85851V9.79929C68.4198 9.08901 68.0142 8.7339 67.1454 8.7339H66.0445V10.8647H67.1454ZM75.6033 9.14822H72.7069V6.30708H82.15V9.14822H79.2535V18.0267H75.6033V9.14822ZM88.696 15.304C89.3913 15.304 89.971 15.008 90.3765 14.4753C90.782 13.9426 91.0134 13.1731 91.0134 12.2261V12.1077C91.0134 11.1015 90.782 10.3912 90.3765 9.85851C89.971 9.32575 89.3913 9.08901 88.6382 9.08901C87.9434 9.08901 87.3638 9.32575 86.9583 9.85851C86.5527 10.3912 86.3208 11.1606 86.3208 12.1077V12.2261C86.3208 13.2323 86.5527 14.0018 86.9583 14.5345C87.3638 15.008 87.9434 15.304 88.696 15.304ZM88.5803 18.2043C86.7263 18.2043 85.2205 17.6716 84.1775 16.547C83.0767 15.4223 82.5555 14.0018 82.5555 12.1669V12.0485C82.5555 10.2728 83.1345 8.85227 84.2932 7.72766C85.4519 6.60303 86.9004 6.07031 88.696 6.07031C90.4922 6.07031 91.9986 6.60303 93.1572 7.66844C94.3159 8.7339 94.895 10.1544 94.895 11.9893V12.1077C94.895 13.9426 94.3159 15.4223 93.2151 16.547C91.9986 17.6716 90.4922 18.2043 88.5803 18.2043ZM99.9931 12.6996C99.8774 13.8242 99.7033 14.5937 99.4719 15.1264H102.6V9.14822H100.225C100.051 11.1015 99.9931 12.2853 99.9931 12.6996ZM95.0107 18.0267V15.1856H95.7638C96.3435 14.8896 96.749 14.0018 96.9225 12.4036C97.0388 11.575 97.0388 9.56255 97.0388 6.30708H106.192V15.1856H107.582V18.0267H95.0107ZM108.567 18.0267V6.30708H112.217V13.0548L115.867 6.30708H119.458V18.0267H115.867V11.1606L112.217 17.9675H108.567V18.0267ZM125.599 13.5874C125.425 15.1264 125.078 16.251 124.499 17.0205C123.977 17.7899 123.108 18.2043 122.008 18.2043C121.891 18.2043 121.718 18.2043 121.602 18.2043C121.486 18.2043 121.37 18.1451 121.255 18.1451C121.139 18.1451 121.08 18.0859 121.023 18.0859C120.965 18.0859 120.907 18.0267 120.849 18.0267L120.791 17.9675V15.1264L120.907 15.1856C121.023 15.1856 121.139 15.2448 121.255 15.2448C121.602 15.2448 121.891 15.008 122.123 14.5937C122.297 14.1794 122.471 13.5282 122.587 12.6404C122.702 11.4566 122.761 9.38496 122.761 6.24789H131.74V17.9675H128.033V9.08901H125.831C125.773 11.2199 125.715 12.6996 125.599 13.5874ZM133.768 6.30708H141.936V9.14822H137.418V10.8055H141.01V13.4099H137.418V15.1856H142.226V18.0267H133.826V6.30708H133.768ZM143.732 6.30708H148.309C151.437 6.30708 153.001 7.66844 153.001 10.332V10.3912C153.001 11.6342 152.596 12.5812 151.843 13.2323C151.09 13.8834 149.931 14.2385 148.425 14.2385H147.324V18.0859H143.675V6.30708H143.732ZM148.077 11.6933C149.062 11.6933 149.525 11.279 149.525 10.3912V10.332C149.525 9.85851 149.41 9.56255 149.178 9.38496C148.946 9.20738 148.599 9.08901 148.077 9.08901H147.324V11.7526H148.077V11.6933Z" fill="white"/>
<path id="Vector_3" d="M50.2852 21.5174H58.0481V24.3586H53.9349V33.2371H50.2852V21.5174ZM64.6522 30.5735C65.3475 30.5735 65.9272 30.2776 66.3327 29.7449C66.7382 29.2121 66.9696 28.4427 66.9696 27.4957V27.3772C66.9696 26.371 66.7382 25.6608 66.3327 25.128C65.9272 24.5953 65.3475 24.3586 64.5943 24.3586C63.8996 24.3586 63.3199 24.5953 62.9144 25.128C62.5089 25.6608 62.2769 26.4302 62.2769 27.3772V27.4957C62.2769 28.5018 62.5089 29.2713 62.9144 29.804C63.3199 30.2776 63.8996 30.5735 64.6522 30.5735ZM64.5365 33.4738C62.6824 33.4738 61.1765 32.9411 60.1337 31.8165C59.033 30.6919 58.5116 29.2713 58.5116 27.4364V27.3181C58.5116 25.5423 59.0909 24.1218 60.2496 22.9971C61.4082 21.8725 62.8566 21.3398 64.6522 21.3398C66.4484 21.3398 67.9547 21.8725 69.1134 22.938C70.2721 24.0034 70.8512 25.424 70.8512 27.2588V27.3772C70.8512 29.2121 70.2721 30.6919 69.1713 31.8165C67.8969 32.9411 66.3905 33.4738 64.5365 33.4738ZM75.8915 27.9691C75.7758 29.0937 75.6016 29.8632 75.3703 30.3959H78.498V24.4177H76.1228C76.0071 26.371 75.9493 27.5548 75.8915 27.9691ZM70.909 33.2371V30.3959H71.6622C72.2418 30.1 72.6474 29.2121 72.8209 27.614C72.9366 26.7854 72.9366 24.7729 72.9366 21.5174H82.0904V30.3959H83.4805V33.2371H70.909ZM87.4778 21.5174H92.1704L95.7622 33.2371H91.9384L91.4172 31.2838H87.7676L87.2464 33.2371H83.886L87.4778 21.5174ZM88.463 28.7978H90.7219L89.6217 24.5361L88.463 28.7978Z" fill="white"/>
<path id="Vector_4" d="M99.4121 32.5268L103.236 28.3835C103.873 27.6732 104.337 27.0813 104.684 26.6078C104.974 26.1342 105.148 25.6608 105.148 25.2464C105.148 24.8913 105.09 24.6545 104.916 24.4177C104.742 24.181 104.51 24.1218 104.163 24.1218C103.757 24.1218 103.468 24.2402 103.294 24.5361C103.062 24.832 102.946 25.2464 102.888 25.8975H99.7019C99.7598 24.4177 100.165 23.2931 100.976 22.5237C101.787 21.7542 102.946 21.3991 104.395 21.3991C105.785 21.3991 106.885 21.7542 107.639 22.4053C108.392 23.1156 108.797 24.0034 108.797 25.0688C108.797 25.8383 108.624 26.4894 108.276 27.1405C107.928 27.7915 107.407 28.3835 106.712 29.0937L105.438 30.3367H108.913V33.0595H99.5863V32.5268H99.4121ZM114.938 30.4551C115.575 30.4551 115.981 30.2184 116.271 29.7448C116.561 29.2713 116.676 28.5018 116.676 27.4956V27.0813C116.676 26.0751 116.561 25.3056 116.271 24.832C115.981 24.3586 115.518 24.1218 114.938 24.1218C114.301 24.1218 113.838 24.3586 113.548 24.832C113.258 25.3056 113.142 26.0159 113.142 27.0813V27.5548C113.142 28.561 113.258 29.3305 113.548 29.804C113.838 30.2184 114.301 30.4551 114.938 30.4551ZM114.822 33.2371C113.2 33.2371 111.868 32.7635 110.941 31.7573C110.014 30.7511 109.551 29.3305 109.551 27.5548V27.0813C109.551 25.3056 110.072 23.885 111.057 22.8788C112.041 21.8725 113.316 21.3398 114.88 21.3398C116.444 21.3398 117.719 21.8134 118.704 22.7604C119.689 23.7074 120.21 25.128 120.21 26.9629V27.3772C120.21 29.2121 119.747 30.6327 118.762 31.6389C117.835 32.7635 116.503 33.2371 114.822 33.2371ZM120.848 32.5268L124.671 28.3835C125.308 27.6732 125.772 27.0813 126.119 26.6078C126.409 26.1342 126.583 25.6608 126.583 25.2464C126.583 24.8913 126.525 24.6545 126.351 24.4177C126.177 24.181 125.945 24.1218 125.598 24.1218C125.193 24.1218 124.903 24.2402 124.729 24.5361C124.497 24.832 124.382 25.2464 124.323 25.8975H121.137C121.195 24.4177 121.6 23.2931 122.412 22.5237C123.223 21.7542 124.382 21.3991 125.829 21.3991C127.22 21.3991 128.32 21.7542 129.074 22.4053C129.827 23.1156 130.232 24.0034 130.232 25.0688C130.232 25.8383 130.059 26.4894 129.711 27.1405C129.363 27.7915 128.842 28.3835 128.147 29.0937L126.872 30.3367H130.349V33.0595H121.021V32.5268H120.848Z" fill="#45A1DA"/>
<path id="Vector_5" d="M135.245 28.3828L131.422 32.5262H131.595V33.0589H140.923V30.3362H137.447L138.721 29.0931C139.416 28.3828 139.938 27.791 140.285 27.1399C140.633 26.4888 140.806 25.8377 140.806 25.0682C140.806 24.0028 140.401 23.115 139.648 22.4047C138.895 21.7536 137.794 21.3984 136.404 21.3984C134.956 21.3984 133.797 21.7536 132.986 22.523C132.175 23.2925 131.77 24.4172 131.711 25.8969H134.897C134.956 25.2458 135.071 24.8315 135.303 24.5355C135.477 24.2396 135.767 24.1212 136.172 24.1212C136.52 24.1212 136.751 24.1804 136.926 24.4172C137.099 24.6539 137.157 24.8906 137.157 25.2458C137.157 25.6601 136.983 26.1336 136.694 26.6072C136.346 27.0807 135.883 27.6726 135.245 28.3828Z" fill="#45A1DA"/>
<path id="Vector_6" d="M19.6402 23.2926L17.207 24.9499V14.4141L25.4914 20.6882L22.7685 21.6944L24.5645 25.2458L21.4361 26.844L19.6402 23.2926Z" fill="#45A1DA"/>
</g>
<defs>
<clipPath id="clip0_4628_79935">
<rect width="153" height="38" fill="white" transform="translate(0 0.625)"/>
</clipPath>
</defs>
</svg>
