<svg width="140" height="35" viewBox="0 0 140 35" fill="none" xmlns="http://www.w3.org/2000/svg">
<g id="&#208;&#177;&#208;&#190;&#209;&#128;&#208;&#176;&#208;&#178;&#209;&#130;&#208;&#190; &#208;&#187;&#208;&#190;&#208;&#179;&#208;&#190; RGB 1" clip-path="url(#clip0_4628_79922)">
<g id="Layer_x0020_1">
<g id="_3044734689056">
<path id="Vector" d="M39.0244 11.9037C41.0737 11.9037 42.7183 12.5236 43.9581 13.7634C45.1981 15.0034 45.818 16.6308 45.818 18.6456C45.818 20.7637 45.1463 22.4643 43.8032 23.7472C42.4599 25.0301 40.6777 25.6715 38.4563 25.6715C36.0625 25.6715 34.2113 24.9354 32.9027 23.4629C31.5939 21.9906 30.9395 19.9112 30.9395 17.2248C30.9395 14.1424 31.6067 11.71 32.9414 9.92769C34.2759 8.14526 36.3552 6.90123 39.1795 6.19508L43.8291 5.05859V8.75231L39.2053 9.88897C36.9149 10.4571 35.5632 11.5507 35.1499 13.1694C36.3037 12.3256 37.5952 11.9037 39.0244 11.9037ZM35.899 21.1769C36.5705 21.8486 37.4187 22.1844 38.4432 22.1844C39.4679 22.1844 40.316 21.8486 40.9876 21.1769C41.6593 20.5055 41.9951 19.653 41.9951 18.6197C41.9951 17.5865 41.6593 16.7297 40.9876 16.0496C40.316 15.3693 39.4722 15.0293 38.4563 15.0293C37.7674 15.0293 37.1517 15.1842 36.6094 15.4941C36.0669 15.8041 35.645 16.2304 35.3435 16.7728C35.0422 17.3153 34.8915 17.931 34.8915 18.6197C34.8915 19.653 35.2274 20.5055 35.899 21.1769ZM93.1676 11.3095H95.9832V25.2582H93.0126L92.7026 24.0184C91.4283 25.1206 89.9215 25.6715 88.1822 25.6715C86.0813 25.6715 84.3378 24.9697 82.9516 23.5664C81.5653 22.1629 80.8722 20.4021 80.8722 18.2839C80.8722 16.183 81.5653 14.4351 82.9516 13.0402C84.3378 11.6454 86.0813 10.948 88.1822 10.948C89.956 10.948 91.48 11.5162 92.7543 12.6528L93.1676 11.3095ZM85.767 21.022C86.4818 21.7453 87.3857 22.107 88.4793 22.107C89.5728 22.107 90.4812 21.7453 91.2044 21.022C91.9276 20.2988 92.2893 19.386 92.2893 18.2839C92.2893 17.1819 91.9276 16.2691 91.2044 15.5459C90.4812 14.8227 89.577 14.461 88.4921 14.461C87.7689 14.461 87.1189 14.6289 86.542 14.9647C85.9652 15.3005 85.513 15.7567 85.1858 16.3337C84.8586 16.9107 84.6951 17.5607 84.6951 18.2839C84.6951 19.386 85.0524 20.2988 85.767 21.022ZM55.0315 25.6715C53.6023 25.6715 52.3108 25.3529 51.1568 24.7158C50.0031 24.0786 49.1034 23.1961 48.4576 22.0682C47.8118 20.9402 47.489 19.6874 47.489 18.3097C47.489 16.1917 48.2036 14.4351 49.633 13.0402C51.0622 11.6454 52.8617 10.948 55.0315 10.948C57.1841 10.948 58.975 11.6454 60.4043 13.0402C61.8337 14.4351 62.5483 16.1917 62.5483 18.3097C62.5483 20.4106 61.8293 22.1629 60.3915 23.5664C58.9535 24.9697 57.1668 25.6715 55.0315 25.6715ZM55.0315 22.1327C56.1164 22.1327 57.0033 21.7754 57.692 21.0608C58.3809 20.3462 58.7254 19.4292 58.7254 18.3097C58.7254 17.1905 58.3809 16.2735 57.692 15.5587C57.0033 14.8441 56.1122 14.4868 55.0187 14.4868C53.9251 14.4868 53.034 14.8441 52.3451 15.5587C51.6564 16.2735 51.3119 17.1905 51.3119 18.3097C51.3119 18.8608 51.4024 19.3774 51.5831 19.8597C51.7639 20.3418 52.0179 20.7464 52.3451 21.0736C52.6723 21.4008 53.0641 21.6592 53.5205 21.8486C53.9769 22.038 54.4804 22.1327 55.0315 22.1327ZM71.9426 10.948C74.0434 10.948 75.7871 11.6454 77.1734 13.0402C78.5596 14.4351 79.2527 16.1917 79.2527 18.3097C79.2527 20.4278 78.5552 22.1886 77.1603 23.5921C75.7655 24.9956 74.0263 25.6974 71.9426 25.6974C70.5132 25.6974 69.2303 25.31 68.0938 24.535V30.3211H64.3225V11.3354H66.8281L67.4739 12.6011C68.7137 11.4991 70.2033 10.948 71.9426 10.948ZM68.9075 21.0479C69.6221 21.7711 70.5262 22.1327 71.6198 22.1327C72.7131 22.1327 73.6215 21.7711 74.3449 21.0479C75.0681 20.3245 75.4297 19.4119 75.4297 18.3097C75.4297 17.5865 75.2661 16.9321 74.9389 16.3465C74.6117 15.7611 74.1598 15.3048 73.5828 14.9776C73.006 14.6504 72.3558 14.4868 71.6326 14.4868C70.9094 14.4868 70.255 14.6504 69.6694 14.9776C69.084 15.3048 68.6319 15.7611 68.3133 16.3465C67.9947 16.9321 67.8354 17.5865 67.8354 18.3097C67.8354 19.4119 68.1929 20.3245 68.9075 21.0479ZM108.684 17.8706C109.321 18.1633 109.816 18.5896 110.169 19.1493C110.522 19.709 110.699 20.359 110.699 21.0995C110.699 22.2877 110.281 23.2822 109.446 24.083C108.611 24.8837 107.556 25.2841 106.282 25.2841H98.6616V11.3354H106.204C107.392 11.3354 108.37 11.667 109.136 12.3299C109.902 12.9929 110.286 13.8411 110.286 14.8742C110.286 15.4941 110.143 16.0667 109.859 16.5921C109.575 17.1173 109.183 17.5434 108.684 17.8706ZM106.592 15.4941C106.592 15.2187 106.531 14.982 106.411 14.7838C106.29 14.5858 106.122 14.4309 105.907 14.3189C105.692 14.207 105.447 14.151 105.171 14.151H102.355V16.8374H105.171C105.584 16.8374 105.924 16.7082 106.191 16.4499C106.458 16.1917 106.592 15.8731 106.592 15.4941ZM105.352 22.2877C105.817 22.2877 106.187 22.1629 106.462 21.9132C106.738 21.6634 106.876 21.319 106.876 20.88C106.876 20.4409 106.738 20.092 106.462 19.8338C106.187 19.5754 105.817 19.4462 105.352 19.4462H102.355V22.2877H105.352ZM124.304 11.3354V14.7193H119.757V25.2841H116.064V14.7193H111.517V11.3354H124.304ZM132.484 25.6715C131.055 25.6715 129.763 25.3529 128.609 24.7158C127.455 24.0786 126.556 23.1961 125.91 22.0682C125.264 20.9402 124.941 19.6874 124.941 18.3097C124.941 16.1917 125.656 14.4351 127.085 13.0402C128.515 11.6454 130.314 10.948 132.484 10.948C134.636 10.948 136.427 11.6454 137.857 13.0402C139.286 14.4351 140.001 16.1917 140.001 18.3097C140.001 20.4106 139.282 22.1629 137.844 23.5664C136.406 24.9697 134.619 25.6715 132.484 25.6715ZM132.484 22.1327C133.569 22.1327 134.456 21.7754 135.144 21.0608C135.833 20.3462 136.178 19.4292 136.178 18.3097C136.178 17.1905 135.833 16.2735 135.144 15.5587C134.456 14.8441 133.565 14.4868 132.471 14.4868C131.377 14.4868 130.486 14.8441 129.797 15.5587C129.109 16.2735 128.764 17.1905 128.764 18.3097C128.764 18.8608 128.855 19.3774 129.036 19.8597C129.216 20.3418 129.47 20.7464 129.797 21.0736C130.125 21.4008 130.516 21.6592 130.973 21.8486C131.429 22.038 131.933 22.1327 132.484 22.1327Z" fill="white"/>
<path id="Vector_2" d="M11.9736 22.7037C9.20343 22.7037 6.95703 20.4585 6.95703 17.6881C6.95703 14.917 9.20343 12.6719 11.9736 12.6719C14.7436 12.6719 16.9899 14.917 16.9899 17.6881C16.9899 20.4585 14.7436 22.7037 11.9736 22.7037Z" fill="url(#paint0_linear_4628_79922)"/>
<path id="Vector_3" d="M0 5.71435C3.30685 2.40751 7.64088 0.753906 11.9744 0.753906C16.3079 0.753906 20.6419 2.40751 23.9488 5.71435L18.6808 10.9823C16.8296 9.13103 14.4019 8.20505 11.9744 8.20505C9.54688 8.20505 7.11919 9.13103 5.26794 10.9823L0 5.71435H0Z" fill="url(#paint1_linear_4628_79922)"/>
<path id="Vector_4" d="M23.9488 29.6625C20.6419 32.9693 16.3079 34.6229 11.9744 34.6229C7.64106 34.6229 3.30702 32.9691 0 29.6625L5.26793 24.3945C7.11937 26.246 9.54706 27.1718 11.9744 27.1718C14.4019 27.1718 16.8296 26.2458 18.6808 24.3945L23.9488 29.6625Z" fill="url(#paint2_linear_4628_79922)"/>
<g id="Mask group">
<mask id="mask0_4628_79922" style="mask-type:alpha" maskUnits="userSpaceOnUse" x="0" y="24" width="24" height="11">
<path id="Vector_5" d="M23.9488 29.6625C20.6419 32.9693 16.3079 34.6229 11.9744 34.6229C7.64106 34.6229 3.30702 32.9691 0 29.6625L5.26793 24.3945C7.11937 26.246 9.54706 27.1718 11.9744 27.1718C14.4019 27.1718 16.8296 26.2458 18.6808 24.3945L23.9488 29.6625Z" fill="url(#paint3_linear_4628_79922)"/>
</mask>
<g mask="url(#mask0_4628_79922)">
<g id="Rectangle 362" filter="url(#filter0_f_4628_79922)">
<rect x="21.0977" y="-0.597656" width="12.8703" height="49.8287" transform="rotate(44.6602 21.0977 -0.597656)" fill="url(#paint4_linear_4628_79922)"/>
</g>
</g>
</g>
<g id="Mask group_2">
<mask id="mask1_4628_79922" style="mask-type:alpha" maskUnits="userSpaceOnUse" x="0" y="0" width="24" height="11">
<path id="Vector_6" d="M0 5.71435C3.30685 2.40751 7.64088 0.753906 11.9744 0.753906C16.3079 0.753906 20.6419 2.40751 23.9488 5.71435L18.6808 10.9823C16.8296 9.13103 14.4019 8.20505 11.9744 8.20505C9.54688 8.20505 7.11919 9.13103 5.26794 10.9823L0 5.71435H0Z" fill="url(#paint5_linear_4628_79922)"/>
</mask>
<g mask="url(#mask1_4628_79922)">
<g id="Rectangle 362_2" filter="url(#filter1_f_4628_79922)">
<rect x="24.2559" y="-3.08594" width="12.8703" height="49.8287" transform="rotate(42.2383 24.2559 -3.08594)" fill="url(#paint6_linear_4628_79922)"/>
</g>
</g>
</g>
</g>
</g>
</g>
<defs>
<filter id="filter0_f_4628_79922" x="-18.5846" y="-5.25455" width="53.4935" height="53.8021" filterUnits="userSpaceOnUse" color-interpolation-filters="sRGB">
<feFlood flood-opacity="0" result="BackgroundImageFix"/>
<feBlend mode="normal" in="SourceGraphic" in2="BackgroundImageFix" result="shape"/>
<feGaussianBlur stdDeviation="2.32845" result="effect1_foregroundBlur_4628_79922"/>
</filter>
<filter id="filter1_f_4628_79922" x="-13.8971" y="-7.74283" width="52.3392" height="54.8568" filterUnits="userSpaceOnUse" color-interpolation-filters="sRGB">
<feFlood flood-opacity="0" result="BackgroundImageFix"/>
<feBlend mode="normal" in="SourceGraphic" in2="BackgroundImageFix" result="shape"/>
<feGaussianBlur stdDeviation="2.32845" result="effect1_foregroundBlur_4628_79922"/>
</filter>
<linearGradient id="paint0_linear_4628_79922" x1="16.9746" y1="17.2462" x2="7.46885" y2="16.378" gradientUnits="userSpaceOnUse">
<stop stop-color="#A854FF"/>
<stop offset="0.580392" stop-color="#6058FF"/>
<stop offset="1" stop-color="#185CFF"/>
</linearGradient>
<linearGradient id="paint1_linear_4628_79922" x1="23.9124" y1="5.41785" x2="2.03273" y2="0.739654" gradientUnits="userSpaceOnUse">
<stop stop-color="#A854FF"/>
<stop offset="0.580392" stop-color="#6058FF"/>
<stop offset="1" stop-color="#185CFF"/>
</linearGradient>
<linearGradient id="paint2_linear_4628_79922" x1="23.9124" y1="29.0585" x2="2.03273" y2="24.3803" gradientUnits="userSpaceOnUse">
<stop stop-color="#A854FF"/>
<stop offset="0.580392" stop-color="#6058FF"/>
<stop offset="1" stop-color="#185CFF"/>
</linearGradient>
<linearGradient id="paint3_linear_4628_79922" x1="23.9124" y1="29.0585" x2="2.03273" y2="24.3803" gradientUnits="userSpaceOnUse">
<stop stop-color="#A854FF"/>
<stop offset="0.580392" stop-color="#6058FF"/>
<stop offset="1" stop-color="#185CFF"/>
</linearGradient>
<linearGradient id="paint4_linear_4628_79922" x1="21.0977" y1="28.5079" x2="33.968" y2="28.5079" gradientUnits="userSpaceOnUse">
<stop stop-color="#242424" stop-opacity="0"/>
<stop offset="0.496936" stop-color="#242424"/>
<stop offset="1" stop-color="#242424" stop-opacity="0"/>
</linearGradient>
<linearGradient id="paint5_linear_4628_79922" x1="23.9124" y1="5.41785" x2="2.03273" y2="0.739654" gradientUnits="userSpaceOnUse">
<stop stop-color="#A854FF"/>
<stop offset="0.580392" stop-color="#6058FF"/>
<stop offset="1" stop-color="#185CFF"/>
</linearGradient>
<linearGradient id="paint6_linear_4628_79922" x1="24.2559" y1="26.0196" x2="37.1262" y2="26.0196" gradientUnits="userSpaceOnUse">
<stop stop-color="#242424" stop-opacity="0"/>
<stop offset="0.496936" stop-color="#242424"/>
<stop offset="1" stop-color="#242424" stop-opacity="0"/>
</linearGradient>
<clipPath id="clip0_4628_79922">
<rect width="140" height="33.8697" fill="white" transform="translate(0 0.753906)"/>
</clipPath>
</defs>
</svg>
