<svg width="14" height="14" viewBox="0 0 14 14" fill="none" xmlns="http://www.w3.org/2000/svg">
<g id="solid">
<path id="Vector" d="M3.26536 12.3368C3.26536 12.3368 2.33154 12.3368 2.33154 11.4474C2.33154 10.5581 3.26537 7.89003 7.00065 7.89003C10.7359 7.89003 11.6698 10.5581 11.6698 11.4474C11.6698 12.3368 10.7359 12.3368 10.7359 12.3368H3.26536ZM7.00065 7.00068C7.74365 7.00068 8.45621 6.71958 8.98159 6.21922C9.50697 5.71886 9.80212 5.04023 9.80212 4.33261C9.80212 3.625 9.50697 2.94637 8.98159 2.44601C8.45621 1.94565 7.74365 1.66455 7.00065 1.66455C6.25766 1.66455 5.54509 1.94565 5.01972 2.44601C4.49434 2.94637 4.19919 3.625 4.19919 4.33261C4.19919 5.04023 4.49434 5.71886 5.01972 6.21922C5.54509 6.71958 6.25766 7.00068 7.00065 7.00068Z" fill="#797979"/>
</g>
</svg>
