<svg width="20" height="21" viewBox="0 0 20 21" fill="none" xmlns="http://www.w3.org/2000/svg">
<g id="solid">
<path id="Vector" d="M12.7068 14.1985L14.1068 12.7985C14.2953 12.6122 14.5339 12.4848 14.7935 12.4315C15.0531 12.3783 15.3226 12.4015 15.5693 12.4985L17.2755 13.1797C17.5248 13.2809 17.7385 13.4536 17.8898 13.676C18.041 13.8985 18.1231 14.1607 18.1255 14.4297V17.5547C18.1241 17.7377 18.0856 17.9185 18.0124 18.0862C17.9393 18.254 17.8329 18.4051 17.6998 18.5307C17.5666 18.6562 17.4095 18.7535 17.2377 18.8167C17.066 18.8799 16.8833 18.9077 16.7005 18.8985C4.74426 18.1547 2.33176 8.02971 1.87551 4.15471C1.85433 3.96442 1.87368 3.77181 1.93229 3.58953C1.9909 3.40726 2.08744 3.23946 2.21555 3.09717C2.34367 2.95489 2.50046 2.84134 2.67561 2.764C2.85076 2.68666 3.0403 2.64729 3.23176 2.64846H6.25051C6.51989 2.64926 6.78287 2.73063 7.00563 2.88211C7.22839 3.03358 7.40074 3.24824 7.50051 3.49846L8.18176 5.20471C8.28192 5.45038 8.30747 5.72011 8.25523 5.98022C8.20299 6.24033 8.07526 6.47927 7.88801 6.66721L6.48801 8.06721C6.48801 8.06721 7.29426 13.5235 12.7068 14.1985Z" fill="url(#paint0_linear_4628_109080)"/>
</g>
<defs>
<linearGradient id="paint0_linear_4628_109080" x1="2.20172" y1="2.7355" x2="17.7472" y2="2.38046" gradientUnits="userSpaceOnUse">
<stop stop-color="#095DFF"/>
<stop offset="1" stop-color="#A953FF"/>
</linearGradient>
</defs>
</svg>
