<svg width="20" height="20" viewBox="0 0 20 20" fill="none" xmlns="http://www.w3.org/2000/svg">
<g id="solid" clip-path="url(#clip0_4628_3528)">
<path id="Subtract" fill-rule="evenodd" clip-rule="evenodd" d="M16.0718 13.3007C16.0228 13.0303 16.0559 12.7515 16.1668 12.5002C16.2725 12.2537 16.4479 12.0435 16.6714 11.8954C16.895 11.7474 17.157 11.6679 17.4252 11.6668H17.5002C17.9422 11.6668 18.3661 11.4912 18.6787 11.1787C18.9912 10.8661 19.1668 10.4422 19.1668 10.0002C19.1668 9.55814 18.9912 9.13421 18.6787 8.82165C18.3661 8.50909 17.9422 8.3335 17.5002 8.3335H17.3585C17.0903 8.33243 16.8284 8.25297 16.6048 8.10491C16.3812 7.95684 16.2058 7.74664 16.1002 7.50016V7.4335C15.9892 7.18215 15.9561 6.90334 16.0052 6.63301C16.0542 6.36268 16.183 6.11323 16.3752 5.91683L16.4252 5.86683C16.5801 5.71204 16.7031 5.52823 16.7869 5.3259C16.8708 5.12357 16.914 4.90669 16.914 4.68766C16.914 4.46864 16.8708 4.25176 16.7869 4.04943C16.7031 3.8471 16.5801 3.66328 16.4252 3.5085C16.2704 3.35354 16.0866 3.2306 15.8842 3.14673C15.6819 3.06286 15.465 3.01969 15.246 3.01969C15.027 3.01969 14.8101 3.06286 14.6078 3.14673C14.4054 3.2306 14.2216 3.35354 14.0668 3.5085L14.0168 3.5585C13.8204 3.75061 13.571 3.87948 13.3007 3.9285C13.0303 3.97752 12.7515 3.94443 12.5002 3.8335C12.2537 3.72786 12.0435 3.55246 11.8954 3.32888C11.7474 3.10531 11.6679 2.84332 11.6668 2.57516V2.50016C11.6668 2.05814 11.4912 1.63421 11.1787 1.32165C10.8661 1.00909 10.4422 0.833496 10.0002 0.833496C9.55814 0.833496 9.13421 1.00909 8.82165 1.32165C8.50909 1.63421 8.3335 2.05814 8.3335 2.50016V2.64183C8.33243 2.90999 8.25297 3.17198 8.10491 3.39555C7.95684 3.61913 7.74664 3.79453 7.50016 3.90016H7.4335C7.18215 4.01109 6.90334 4.04418 6.63301 3.99517C6.36268 3.94615 6.11323 3.81728 5.91683 3.62516L5.86683 3.57516C5.71204 3.4202 5.52823 3.29727 5.3259 3.2134C5.12357 3.12952 4.90669 3.08635 4.68766 3.08635C4.46864 3.08635 4.25176 3.12952 4.04943 3.2134C3.8471 3.29727 3.66328 3.4202 3.5085 3.57516C3.35354 3.72995 3.2306 3.91377 3.14673 4.1161C3.06286 4.31843 3.01969 4.5353 3.01969 4.75433C3.01969 4.97336 3.06286 5.19023 3.14673 5.39256C3.2306 5.59489 3.35354 5.77871 3.5085 5.9335L3.5585 5.9835C3.75061 6.1799 3.87948 6.42934 3.9285 6.69967C3.97752 6.97 3.94443 7.24882 3.8335 7.50016C3.73826 7.75911 3.56732 7.98342 3.34291 8.14392C3.1185 8.30443 2.85099 8.39371 2.57516 8.40016H2.50016C2.05814 8.40016 1.63421 8.57576 1.32165 8.88832C1.00909 9.20088 0.833496 9.6248 0.833496 10.0668C0.833496 10.5089 1.00909 10.9328 1.32165 11.2453C1.63421 11.5579 2.05814 11.7335 2.50016 11.7335H2.64183C2.90999 11.7346 3.17198 11.814 3.39555 11.9621C3.61913 12.1101 3.79453 12.3204 3.90016 12.5668C4.01109 12.8182 4.04418 13.097 3.99517 13.3673C3.94615 13.6376 3.81728 13.8871 3.62516 14.0835L3.57516 14.1335C3.4202 14.2883 3.29727 14.4721 3.2134 14.6744C3.12952 14.8768 3.08635 15.0936 3.08635 15.3127C3.08635 15.5317 3.12952 15.7486 3.2134 15.9509C3.29727 16.1532 3.4202 16.337 3.57516 16.4918C3.72995 16.6468 3.91377 16.7697 4.1161 16.8536C4.31843 16.9375 4.5353 16.9806 4.75433 16.9806C4.97336 16.9806 5.19023 16.9375 5.39256 16.8536C5.59489 16.7697 5.77871 16.6468 5.9335 16.4918L5.9835 16.4418C6.1799 16.2497 6.42934 16.1208 6.69967 16.0718C6.97 16.0228 7.24882 16.0559 7.50016 16.1668C7.75911 16.2621 7.98342 16.433 8.14392 16.6574C8.30443 16.8818 8.39371 17.1493 8.40016 17.4252V17.5002C8.40016 17.9422 8.57576 18.3661 8.88832 18.6787C9.20088 18.9912 9.6248 19.1668 10.0668 19.1668C10.5089 19.1668 10.9328 18.9912 11.2453 18.6787C11.5579 18.3661 11.7335 17.9422 11.7335 17.5002V17.3585C11.7346 17.0903 11.814 16.8284 11.9621 16.6048C12.1101 16.3812 12.3204 16.2058 12.5668 16.1002C12.8182 15.9892 13.097 15.9561 13.3673 16.0052C13.6376 16.0542 13.8871 16.183 14.0835 16.3752L14.1335 16.4252C14.2883 16.5801 14.4721 16.7031 14.6744 16.7869C14.8768 16.8708 15.0936 16.914 15.3127 16.914C15.5317 16.914 15.7486 16.8708 15.9509 16.7869C16.1532 16.7031 16.337 16.5801 16.4918 16.4252C16.6468 16.2704 16.7697 16.0866 16.8536 15.8842C16.9375 15.6819 16.9806 15.465 16.9806 15.246C16.9806 15.027 16.9375 14.8101 16.8536 14.6078C16.7697 14.4054 16.6468 14.2216 16.4918 14.0668L16.4418 14.0168C16.2497 13.8204 16.1208 13.571 16.0718 13.3007ZM12.5 10.0002C12.5 11.3809 11.3807 12.5002 10 12.5002C8.61929 12.5002 7.5 11.3809 7.5 10.0002C7.5 8.61947 8.61929 7.50018 10 7.50018C11.3807 7.50018 12.5 8.61947 12.5 10.0002Z" fill="#A7A7A7"/>
</g>
<defs>
<clipPath id="clip0_4628_3528">
<rect width="20" height="20" fill="white"/>
</clipPath>
</defs>
</svg>
