<svg width="18" height="16" viewBox="0 0 18 16" fill="none" xmlns="http://www.w3.org/2000/svg">
<path id="Vector" d="M16.8948 5.47111L15.6636 1.82311C15.485 1.29198 15.1415 0.829956 14.6818 0.502674C14.2221 0.175392 13.6697 -0.000496183 13.1031 1.05136e-06H4.8969C4.33025 -0.000496183 3.77785 0.175392 3.3182 0.502674C2.85854 0.829956 2.515 1.29198 2.3364 1.82311L1.1052 5.47111C0.7778 5.60641 0.498204 5.83429 0.30156 6.12609C0.104916 6.41789 -4.3281e-07 6.76059 0 7.11111V11.5556C0 12.2116 0.3636 12.7787 0.9 13.0871V15.1111C0.9 15.3469 0.994821 15.573 1.1636 15.7397C1.33239 15.9064 1.56131 16 1.8 16H2.7C2.93869 16 3.16761 15.9064 3.3364 15.7397C3.50518 15.573 3.6 15.3469 3.6 15.1111V13.3333H14.4V15.1111C14.4 15.3469 14.4948 15.573 14.6636 15.7397C14.8324 15.9064 15.0613 16 15.3 16H16.2C16.4387 16 16.6676 15.9064 16.8364 15.7397C17.0052 15.573 17.1 15.3469 17.1 15.1111V13.0871C17.3731 12.9325 17.6 12.7094 17.758 12.4406C17.916 12.1717 17.9995 11.8664 18 11.5556V7.11111C18 6.76059 17.8951 6.41789 17.6984 6.12609C17.5018 5.83429 17.2222 5.60641 16.8948 5.47111ZM4.8969 1.77778H13.1022C13.4901 1.77778 13.8339 2.02133 13.9563 2.38578L14.9517 5.33333H3.0483L4.0428 2.38578C4.10251 2.20871 4.21714 2.05469 4.37044 1.94556C4.52374 1.83644 4.70793 1.77773 4.8969 1.77778ZM3.15 10.6667C2.97266 10.6666 2.79706 10.6321 2.63324 10.565C2.46942 10.4979 2.32058 10.3996 2.19522 10.2757C2.06986 10.1518 1.97044 10.0047 1.90262 9.84289C1.83481 9.68105 1.79994 9.5076 1.8 9.33244C1.80006 9.15729 1.83505 8.98386 1.90297 8.82206C1.97089 8.66026 2.07041 8.51326 2.19586 8.38945C2.3213 8.26564 2.4702 8.16744 2.63407 8.10047C2.79794 8.03349 2.97356 7.99905 3.1509 7.99911C3.50906 7.99923 3.85251 8.13986 4.10568 8.39008C4.35885 8.6403 4.50102 8.97959 4.5009 9.33333C4.50078 9.68707 4.35839 10.0263 4.10504 10.2763C3.8517 10.5264 3.50816 10.6668 3.15 10.6667ZM14.85 10.6667C14.6727 10.6666 14.4971 10.6321 14.3332 10.565C14.1694 10.4979 14.0206 10.3996 13.8952 10.2757C13.7699 10.1518 13.6704 10.0047 13.6026 9.84289C13.5348 9.68105 13.4999 9.5076 13.5 9.33244C13.5001 9.15729 13.535 8.98386 13.603 8.82206C13.6709 8.66026 13.7704 8.51326 13.8959 8.38945C14.0213 8.26564 14.1702 8.16744 14.3341 8.10047C14.4979 8.03349 14.6736 7.99905 14.8509 7.99911C15.2091 7.99923 15.5525 8.13986 15.8057 8.39008C16.0589 8.6403 16.201 8.97959 16.2009 9.33333C16.2008 9.68707 16.0584 10.0263 15.805 10.2763C15.5517 10.5264 15.2082 10.6668 14.85 10.6667Z" fill="url(#paint0_linear_5060_17300)"/>
<defs>
<linearGradient id="paint0_linear_5060_17300" x1="0.370368" y1="0.0857153" x2="17.5788" y2="-0.356252" gradientUnits="userSpaceOnUse">
<stop stop-color="#095DFF"/>
<stop offset="1" stop-color="#A953FF"/>
</linearGradient>
</defs>
</svg>
