<svg width="20" height="20" viewBox="0 0 20 20" fill="none" xmlns="http://www.w3.org/2000/svg">
<g id="solid">
<path id="Vector" fill-rule="evenodd" clip-rule="evenodd" d="M17.2138 9.77112C17.3277 9.88512 17.3926 10.0392 17.3945 10.2004C17.3922 10.3593 17.3273 10.5108 17.2138 10.6221L9.97705 17.8663C9.63696 18.2048 9.17668 18.3948 8.69688 18.3948C8.21708 18.3948 7.7568 18.2048 7.41671 17.8663L1.03093 11.473C0.862669 11.3057 0.729141 11.1069 0.638024 10.8878C0.546908 10.6687 0.5 10.4338 0.5 10.1966C0.5 9.95934 0.546908 9.72443 0.638024 9.50537C0.729141 9.28632 0.862669 9.08744 1.03093 8.92018L4.39702 5.54656L8.26765 1.67593C8.38058 1.56327 8.53359 1.5 8.69311 1.5C8.85264 1.5 9.00565 1.56327 9.11858 1.67593L17.2138 9.77112ZM17.1686 12.6474C17.3288 12.6474 17.4827 12.7096 17.5978 12.8209L17.6144 12.8387C17.7988 13.0344 19.2771 14.6035 19.2771 16.2623C19.2771 16.8215 19.055 17.3578 18.6595 17.7533C18.2641 18.1487 17.7278 18.3708 17.1686 18.3708C16.6094 18.3708 16.0731 18.1487 15.6776 17.7533C15.2822 17.3578 15.0601 16.8215 15.0601 16.2623C15.0601 14.6035 16.5383 13.0344 16.7227 12.8387L16.7394 12.8209C16.8545 12.7096 17.0084 12.6474 17.1686 12.6474ZM15.866 10.1734L8.88654 3.19395C8.75267 3.06008 8.52927 3.08219 8.43959 3.24892C7.56517 4.87463 7.69065 7.35317 9.69877 9.36113C11.1193 10.7816 14.1146 11.4217 15.8065 10.6123C15.9773 10.5306 15.9998 10.3072 15.866 10.1734Z" fill="#B9B9B9"/>
</g>
</svg>
