<svg width="20" height="20" viewBox="0 0 20 20" fill="none" xmlns="http://www.w3.org/2000/svg">
<g id="solid">
<path id="Vector" fill-rule="evenodd" clip-rule="evenodd" d="M17.4558 13.1347C17.9945 12.0682 18.2737 10.8895 18.2706 9.69472V9.24209C18.1665 7.35522 17.3701 5.57304 16.0338 4.23679C14.6976 2.90054 12.9154 2.10412 11.0285 2.00003H10.5759C9.38105 1.99691 8.20239 2.27607 7.13589 2.81476C5.8579 3.45348 4.78297 4.4354 4.03151 5.65053C3.28005 6.86566 2.88173 8.26601 2.88118 9.69472C2.87806 10.8895 3.15722 12.0682 3.69591 13.1347L2.29215 17.346C2.16185 17.7369 2.53372 18.1087 2.9246 17.9785L7.13589 16.5747C8.20239 17.1134 9.38105 17.3925 10.5759 17.3894C12.0046 17.3889 13.4049 16.9906 14.6201 16.2391C15.8352 15.4876 16.8171 14.4127 17.4558 13.1347ZM7.20049 7.75001C6.86912 7.75001 6.60049 8.01864 6.60049 8.35001C6.60049 8.68138 6.86912 8.95001 7.20049 8.95001H14.2005C14.5319 8.95001 14.8005 8.68138 14.8005 8.35001C14.8005 8.01864 14.5319 7.75001 14.2005 7.75001H7.20049ZM7.20049 10.75C6.86912 10.75 6.60049 11.0186 6.60049 11.35C6.60049 11.6814 6.86912 11.95 7.20049 11.95H11.5082C11.8396 11.95 12.1082 11.6814 12.1082 11.35C12.1082 11.0186 11.8396 10.75 11.5082 10.75H7.20049Z" fill="url(#paint0_linear_5053_17357)"/>
</g>
<defs>
<linearGradient id="paint0_linear_5053_17357" x1="2.59494" y1="2.08574" x2="17.8982" y2="1.73638" gradientUnits="userSpaceOnUse">
<stop stop-color="#095DFF"/>
<stop offset="1" stop-color="#A953FF"/>
</linearGradient>
</defs>
</svg>
