<svg width="20" height="20" viewBox="0 0 20 20" fill="none" xmlns="http://www.w3.org/2000/svg">
<g id="solid">
<path id="Vector" d="M1 16.5082L1 13.6424M1 13.6424H3.5M1 13.6424L3.88464 16.5082C4.89925 17.5241 6.15448 18.2661 7.5332 18.6652C8.91192 19.0643 10.3692 19.1073 11.769 18.7904C13.1689 18.4734 14.4657 17.8068 15.5385 16.8527C16.6112 15.8985 17.4249 14.688 17.9037 13.3341M19 4.49175C19 5.74558 19 6.20677 19 7.46059M19 7.46059C17.6482 7.46059 17.3518 7.46059 16 7.46059M19 7.46059C17.2894 5.85208 15.8929 4.49175 15.8929 4.49175C14.8783 3.47594 13.6231 2.73388 12.2444 2.33481C10.8656 1.93574 9.40836 1.89267 8.00851 2.20962C6.60866 2.52657 5.31186 3.19321 4.23911 4.14733C3.16635 5.10146 2.35262 6.31197 1.87383 7.66592" stroke="#B9B9B9" stroke-width="1.5" stroke-linecap="round" stroke-linejoin="round"/>
<path id="Vector_2" d="M14.3178 9.0775L13.5578 7.0255C13.4475 6.72674 13.2355 6.46685 12.9517 6.28275C12.668 6.09866 12.327 5.99972 11.9772 6H8.02278C7.67299 5.99972 7.33201 6.09866 7.04827 6.28275C6.76453 6.46685 6.55247 6.72674 6.44222 7.0255L5.68222 9.0775C5.48012 9.15361 5.30753 9.28179 5.18615 9.44592C5.06476 9.61006 5 9.80283 5 10V12.5C5 12.869 5.22444 13.188 5.55556 13.3615V14.5C5.55556 14.6326 5.61409 14.7598 5.71827 14.8536C5.82246 14.9473 5.96377 15 6.11111 15H6.66667C6.81401 15 6.95532 14.9473 7.0595 14.8536C7.16369 14.7598 7.22222 14.6326 7.22222 14.5V13.5H12.7778V14.5C12.7778 14.6326 12.8363 14.7598 12.9405 14.8536C13.0447 14.9473 13.186 15 13.3333 15H13.8889C14.0362 15 14.1775 14.9473 14.2817 14.8536C14.3859 14.7598 14.4444 14.6326 14.4444 14.5V13.3615C14.613 13.2745 14.7531 13.1491 14.8506 12.9978C14.9482 12.8466 14.9997 12.6749 15 12.5V10C15 9.80283 14.9352 9.61006 14.8139 9.44592C14.6925 9.28179 14.5199 9.15361 14.3178 9.0775ZM8.02278 7H11.9767C12.2161 7 12.4283 7.137 12.5039 7.342L13.1183 9H6.88167L7.49556 7.342C7.53242 7.2424 7.60318 7.15576 7.69781 7.09438C7.79243 7.03299 7.90613 6.99998 8.02278 7ZM6.94444 12C6.83497 12 6.72658 11.9805 6.62546 11.9428C6.52433 11.9051 6.43246 11.8498 6.35507 11.7801C6.27769 11.7104 6.21632 11.6277 6.17446 11.5366C6.1326 11.4456 6.11107 11.348 6.11111 11.2495C6.11115 11.151 6.13275 11.0534 6.17467 10.9624C6.2166 10.8714 6.27803 10.7887 6.35547 10.7191C6.4329 10.6494 6.52482 10.5942 6.62597 10.5565C6.72712 10.5188 6.83553 10.4995 6.945 10.4995C7.16609 10.4996 7.37809 10.5787 7.53437 10.7194C7.69065 10.8602 7.77841 11.051 7.77833 11.25C7.77826 11.449 7.69036 11.6398 7.53398 11.7804C7.37759 11.9211 7.16553 12.0001 6.94444 12ZM13.0556 12C12.9461 12 12.8377 11.9805 12.7366 11.9428C12.6354 11.9051 12.5436 11.8498 12.4662 11.7801C12.3888 11.7104 12.3274 11.6277 12.2856 11.5366C12.2437 11.4456 12.2222 11.348 12.2222 11.2495C12.2223 11.151 12.2439 11.0534 12.2858 10.9624C12.3277 10.8714 12.3891 10.7887 12.4666 10.7191C12.544 10.6494 12.6359 10.5942 12.7371 10.5565C12.8382 10.5188 12.9466 10.4995 13.0561 10.4995C13.2772 10.4996 13.4892 10.5787 13.6455 10.7194C13.8018 10.8602 13.8895 11.051 13.8894 11.25C13.8894 11.449 13.8015 11.6398 13.6451 11.7804C13.4887 11.9211 13.2766 12.0001 13.0556 12Z" fill="#B9B9B9"/>
</g>
</svg>
