<svg width="18" height="18" viewBox="0 0 18 18" fill="none" xmlns="http://www.w3.org/2000/svg">
<g id="solid">
<path id="Vector" fill-rule="evenodd" clip-rule="evenodd" d="M16.5 9C16.5 13.1421 13.1421 16.5 9 16.5C4.85786 16.5 1.5 13.1421 1.5 9C1.5 4.85786 4.85786 1.5 9 1.5C13.1421 1.5 16.5 4.85786 16.5 9ZM9.67515 4.49998C9.67515 4.12719 9.37294 3.82498 9.00015 3.82498C8.62735 3.82498 8.32515 4.12719 8.32515 4.49998V8.99998C8.32515 9.25565 8.4696 9.48938 8.69828 9.60372L11.6983 11.1037C12.0317 11.2704 12.4372 11.1353 12.6039 10.8019C12.7706 10.4684 12.6355 10.063 12.302 9.89624L9.67515 8.58281V4.49998Z" fill="url(#paint0_linear_5053_17338)"/>
</g>
<defs>
<linearGradient id="paint0_linear_5053_17338" x1="1.80864" y1="1.58036" x2="16.151" y2="1.25293" gradientUnits="userSpaceOnUse">
<stop stop-color="#095DFF"/>
<stop offset="1" stop-color="#A953FF"/>
</linearGradient>
</defs>
</svg>
