<svg width="20" height="20" viewBox="0 0 20 20" fill="none" xmlns="http://www.w3.org/2000/svg">
<g id="solid" clip-path="url(#clip0_5053_17326)">
<path id="Subtract" fill-rule="evenodd" clip-rule="evenodd" d="M16.0723 13.3011C16.0233 13.0308 16.0564 12.752 16.1673 12.5007C16.273 12.2542 16.4484 12.044 16.6719 11.8959C16.8955 11.7478 17.1575 11.6684 17.4257 11.6673H17.5007C17.9427 11.6673 18.3666 11.4917 18.6792 11.1792C18.9917 10.8666 19.1673 10.4427 19.1673 10.0007C19.1673 9.55862 18.9917 9.1347 18.6792 8.82214C18.3666 8.50958 17.9427 8.33398 17.5007 8.33398H17.359C17.0908 8.33292 16.8288 8.25346 16.6053 8.1054C16.3817 7.95733 16.2063 7.74713 16.1007 7.50065V7.43398C15.9897 7.18264 15.9566 6.90382 16.0056 6.63349C16.0547 6.36316 16.1835 6.11372 16.3757 5.91732L16.4257 5.86732C16.5806 5.71253 16.7035 5.52872 16.7874 5.32639C16.8713 5.12405 16.9145 4.90718 16.9145 4.68815C16.9145 4.46913 16.8713 4.25225 16.7874 4.04992C16.7035 3.84759 16.5806 3.66377 16.4257 3.50898C16.2709 3.35402 16.087 3.23109 15.8847 3.14722C15.6824 3.06334 15.4655 3.02017 15.2465 3.02017C15.0275 3.02017 14.8106 3.06334 14.6083 3.14722C14.4059 3.23109 14.2221 3.35402 14.0673 3.50898L14.0173 3.55898C13.8209 3.7511 13.5715 3.87997 13.3011 3.92899C13.0308 3.978 12.752 3.94491 12.5007 3.83398C12.2542 3.72835 12.044 3.55295 11.8959 3.32937C11.7478 3.1058 11.6684 2.84381 11.6673 2.57565V2.50065C11.6673 2.05862 11.4917 1.6347 11.1792 1.32214C10.8666 1.00958 10.4427 0.833984 10.0007 0.833984C9.55862 0.833984 9.1347 1.00958 8.82214 1.32214C8.50958 1.6347 8.33398 2.05862 8.33398 2.50065V2.64232C8.33292 2.91047 8.25346 3.17246 8.1054 3.39604C7.95733 3.61961 7.74713 3.79502 7.50065 3.90065H7.43398C7.18264 4.01158 6.90382 4.04467 6.63349 3.99565C6.36316 3.94664 6.11372 3.81777 5.91732 3.62565L5.86732 3.57565C5.71253 3.42069 5.52872 3.29776 5.32639 3.21388C5.12405 3.13001 4.90718 3.08684 4.68815 3.08684C4.46913 3.08684 4.25225 3.13001 4.04992 3.21388C3.84759 3.29776 3.66377 3.42069 3.50898 3.57565C3.35402 3.73044 3.23109 3.91425 3.14722 4.11658C3.06334 4.31891 3.02017 4.53579 3.02017 4.75482C3.02017 4.97384 3.06334 5.19072 3.14722 5.39305C3.23109 5.59538 3.35402 5.7792 3.50898 5.93398L3.55898 5.98398C3.7511 6.18038 3.87997 6.42983 3.92899 6.70016C3.978 6.97049 3.94491 7.2493 3.83398 7.50065C3.73875 7.7596 3.56781 7.9839 3.3434 8.14441C3.11899 8.30492 2.85148 8.3942 2.57565 8.40065H2.50065C2.05862 8.40065 1.6347 8.57625 1.32214 8.88881C1.00958 9.20137 0.833984 9.62529 0.833984 10.0673C0.833984 10.5093 1.00958 10.9333 1.32214 11.2458C1.6347 11.5584 2.05862 11.734 2.50065 11.734H2.64232C2.91047 11.7351 3.17246 11.8145 3.39604 11.9626C3.61961 12.1106 3.79502 12.3208 3.90065 12.5673C4.01158 12.8187 4.04467 13.0975 3.99565 13.3678C3.94664 13.6381 3.81777 13.8876 3.62565 14.084L3.57565 14.134C3.42069 14.2888 3.29776 14.4726 3.21388 14.6749C3.13001 14.8772 3.08684 15.0941 3.08684 15.3132C3.08684 15.5322 3.13001 15.7491 3.21388 15.9514C3.29776 16.1537 3.42069 16.3375 3.57565 16.4923C3.73044 16.6473 3.91425 16.7702 4.11658 16.8541C4.31891 16.938 4.53579 16.9811 4.75482 16.9811C4.97384 16.9811 5.19072 16.938 5.39305 16.8541C5.59538 16.7702 5.7792 16.6473 5.93398 16.4923L5.98398 16.4423C6.18038 16.2502 6.42983 16.1213 6.70016 16.0723C6.97049 16.0233 7.2493 16.0564 7.50065 16.1673C7.7596 16.2626 7.9839 16.4335 8.14441 16.6579C8.30492 16.8823 8.3942 17.1498 8.40065 17.4257V17.5007C8.40065 17.9427 8.57625 18.3666 8.88881 18.6792C9.20137 18.9917 9.62529 19.1673 10.0673 19.1673C10.5093 19.1673 10.9333 18.9917 11.2458 18.6792C11.5584 18.3666 11.734 17.9427 11.734 17.5007V17.359C11.7351 17.0908 11.8145 16.8288 11.9626 16.6053C12.1106 16.3817 12.3208 16.2063 12.5673 16.1007C12.8187 15.9897 13.0975 15.9566 13.3678 16.0056C13.6381 16.0547 13.8876 16.1835 14.084 16.3757L14.134 16.4257C14.2888 16.5806 14.4726 16.7035 14.6749 16.7874C14.8772 16.8713 15.0941 16.9145 15.3132 16.9145C15.5322 16.9145 15.7491 16.8713 15.9514 16.7874C16.1537 16.7035 16.3375 16.5806 16.4923 16.4257C16.6473 16.2709 16.7702 16.087 16.8541 15.8847C16.938 15.6824 16.9811 15.4655 16.9811 15.2465C16.9811 15.0275 16.938 14.8106 16.8541 14.6083C16.7702 14.4059 16.6473 14.2221 16.4923 14.0673L16.4423 14.0173C16.2502 13.8209 16.1213 13.5715 16.0723 13.3011ZM12.5005 10.0007C12.5005 11.3814 11.3812 12.5007 10.0005 12.5007C8.61978 12.5007 7.50049 11.3814 7.50049 10.0007C7.50049 8.61996 8.61978 7.50067 10.0005 7.50067C11.3812 7.50067 12.5005 8.61996 12.5005 10.0007Z" fill="#B9B9B9"/>
</g>
<defs>
<clipPath id="clip0_5053_17326">
<rect width="20" height="20" fill="white"/>
</clipPath>
</defs>
</svg>
