<svg width="14" height="14" viewBox="0 0 14 14" fill="none" xmlns="http://www.w3.org/2000/svg">
<g id="solid" clip-path="url(#clip0_1640_125176)">
<path id="Vector" fill-rule="evenodd" clip-rule="evenodd" d="M10.8966 1.02304C10.8166 1.06211 10.7584 1.18659 10.642 1.43555L10.0988 2.59728L8.84288 2.79106C8.59258 2.82968 8.46744 2.84899 8.40819 2.91148C8.35661 2.96587 8.33179 3.04047 8.34044 3.11507C8.35038 3.20076 8.43883 3.29171 8.61575 3.47361L9.53749 4.42134L9.32436 5.73315C9.28152 5.9968 9.26011 6.12863 9.30297 6.20563C9.34025 6.27261 9.40581 6.31897 9.48119 6.33166C9.56785 6.34625 9.68428 6.28161 9.91715 6.15234L11.0068 5.54741L12.0965 6.15234C12.3293 6.28161 12.4458 6.34625 12.5324 6.33166C12.6078 6.31897 12.6734 6.27261 12.7107 6.20563C12.7535 6.12863 12.7321 5.9968 12.6893 5.73315L12.4761 4.42134L13.3979 3.47361L13.3979 3.4736C13.5748 3.2917 13.6632 3.20076 13.6732 3.11507C13.6818 3.04047 13.657 2.96587 13.6054 2.91148C13.5462 2.84899 13.421 2.82968 13.1707 2.79106L11.9148 2.59728L11.3716 1.43555C11.2552 1.18659 11.197 1.06211 11.117 1.02304C11.0474 0.989066 10.9662 0.989066 10.8966 1.02304ZM7.00427 2.5539C7.22679 2.5539 7.44574 2.56641 7.66111 2.59144C7.56179 2.77845 7.52013 2.99305 7.54499 3.20736C7.57724 3.48539 7.72538 3.67838 7.79293 3.76185C7.86214 3.84737 7.95181 3.93949 8.02643 4.01614L8.02644 4.01615L8.02644 4.01616L8.04159 4.03172L8.68247 4.69067L8.53394 5.60484L8.53034 5.62696C8.51215 5.73863 8.49074 5.87005 8.48275 5.98288C8.47523 6.0891 8.46247 6.34209 8.60325 6.59499C8.7584 6.87372 9.03198 7.06783 9.34795 7.12103C9.63499 7.16935 9.87 7.07119 9.96735 7.02819C10.0708 6.9825 10.1871 6.91786 10.2857 6.86311L10.3053 6.85221L11.0065 6.46296L11.7076 6.85221L11.7272 6.8631C11.8258 6.91785 11.9421 6.9825 12.0456 7.02819C12.1209 7.06147 12.2787 7.12781 12.4794 7.13368C12.5349 7.45066 12.5627 7.7769 12.5627 8.11236C12.5627 8.63116 12.4979 9.12456 12.3682 9.59258C12.2385 10.0602 12.0532 10.5025 11.8123 10.9194C11.7104 11.0861 11.5715 11.2158 11.3955 11.3085C11.2194 11.4011 11.0342 11.4474 10.8396 11.4474H3.16892C2.97438 11.4474 2.7891 11.4011 2.61308 11.3085C2.43706 11.2158 2.2981 11.0861 2.19619 10.9194C1.94606 10.484 1.75837 10.0369 1.63312 9.57813C1.50824 9.11974 1.4458 8.63116 1.4458 8.11236C1.4458 7.34344 1.5918 6.62307 1.88381 5.95123C2.17544 5.27977 2.5738 4.6915 3.07888 4.18642C3.58359 3.68171 4.17186 3.28336 4.84369 2.99135C5.51515 2.69972 6.23534 2.5539 7.00427 2.5539ZM7.86583 8.94613C7.64349 9.16847 7.3563 9.27723 7.00427 9.27242C6.65223 9.26797 6.39284 9.14068 6.22608 8.89055L3.87763 5.37482C3.79425 5.24512 3.80592 5.1271 3.91265 5.02075C4.019 4.91402 4.13702 4.90235 4.26672 4.98573L7.78245 7.33418C8.03258 7.50093 8.1645 7.7557 8.17821 8.09847C8.1923 8.44124 8.08817 8.7238 7.86583 8.94613Z" fill="#797979"/>
</g>
<defs>
<clipPath id="clip0_1640_125176">
<rect width="13.3403" height="13.3403" fill="white" transform="translate(0.334961 0.330566)"/>
</clipPath>
</defs>
</svg>
