<svg width="14" height="14" viewBox="0 0 14 14" fill="none" xmlns="http://www.w3.org/2000/svg">
<g id="solid">
<path id="Vector" d="M7.8656 8.94643C7.64326 9.16877 7.35607 9.27753 7.00403 9.27272C6.652 9.26827 6.3926 9.14098 6.22585 8.89085L3.8774 5.37512C3.79402 5.24542 3.80569 5.1274 3.91242 5.02105C4.01877 4.91432 4.13679 4.90265 4.26649 4.98603L7.78222 7.33448C8.03235 7.50123 8.16427 7.756 8.17798 8.09877C8.19206 8.44154 8.08794 8.7241 7.8656 8.94643ZM10.8394 11.4477C11.0339 11.4477 11.2192 11.4014 11.3952 11.3088C11.5712 11.2161 11.7102 11.0864 11.8121 10.9197C12.053 10.5028 12.2383 10.0605 12.368 9.59288C12.4977 9.12486 12.5625 8.63145 12.5625 8.11266C12.5625 7.34374 12.4165 6.62337 12.1245 5.95153C11.8329 5.28007 11.4345 4.6918 10.9294 4.18672C10.4247 3.68201 9.83422 3.28366 9.15794 2.99165C8.48166 2.70002 7.76369 2.5542 7.00403 2.5542C6.23511 2.5542 5.51492 2.70002 4.84346 2.99165C4.17163 3.28366 3.58335 3.68201 3.07865 4.18672C2.57357 4.6918 2.17521 5.28007 1.88358 5.95153C1.59157 6.62337 1.44557 7.34374 1.44557 8.11266C1.44557 8.63145 1.50801 9.12004 1.63289 9.57843C1.75814 10.0372 1.94583 10.4843 2.19596 10.9197C2.29787 11.0864 2.43683 11.2161 2.61285 11.3088C2.78887 11.4014 2.97415 11.4477 3.16869 11.4477H10.8394Z" fill="#797979"/>
</g>
</svg>
