<svg width="20" height="20" viewBox="0 0 20 20" fill="none" xmlns="http://www.w3.org/2000/svg">
<g id="solid">
<path id="Vector" d="M8.56527 3.40661C9.02624 2.47273 9.25673 2.00579 9.56962 1.8566C9.84186 1.7268 10.1581 1.7268 10.4304 1.8566C10.7433 2.00579 10.9738 2.47273 11.4347 3.40661L13.09 6.76L16.7939 7.30139C17.8241 7.45196 18.3392 7.52724 18.5775 7.77885C18.7849 7.99776 18.8825 8.29857 18.843 8.59753C18.7976 8.94113 18.4247 9.30434 17.6789 10.0307L15 12.64L15.6319 16.3242C15.808 17.351 15.896 17.8643 15.7306 18.169C15.5866 18.434 15.3307 18.6199 15.0341 18.6749C14.6932 18.7381 14.2322 18.4957 13.3102 18.0108L10 16.27L6.68981 18.0108C5.7678 18.4957 5.30679 18.7381 4.96591 18.6749C4.66933 18.6199 4.41341 18.434 4.26944 18.169C4.10397 17.8643 4.19202 17.351 4.36812 16.3242L5 12.64L2.32109 10.0307C1.57529 9.30434 1.2024 8.94113 1.15702 8.59753C1.11754 8.29857 1.21507 7.99776 1.42247 7.77885C1.66084 7.52724 2.17591 7.45196 3.20605 7.30139L6.91 6.76L8.56527 3.40661Z" fill="#A7A7A7"/>
</g>
</svg>
