<svg width="80" height="80" viewBox="0 0 80 80" fill="none" xmlns="http://www.w3.org/2000/svg">
<path id="Subtract" opacity="0.5" fill-rule="evenodd" clip-rule="evenodd" d="M40 80C62.0914 80 80 62.0914 80 40C80 17.9086 62.0914 0 40 0C17.9086 0 0 17.9086 0 40C0 62.0914 17.9086 80 40 80ZM52.7037 15.5041C51.3252 14.149 49.1092 14.1679 47.7541 15.5463C46.399 16.9248 46.4179 19.1408 47.7963 20.4959L52.4473 25.0682H34.125C32.192 25.0682 30.625 26.6352 30.625 28.5682C30.625 30.5012 32.192 32.0682 34.125 32.0682H52.4473L47.7963 36.6405C46.4179 37.9956 46.399 40.2116 47.7541 41.59C49.1092 42.9685 51.3252 42.9874 52.7037 41.6323L63.4537 31.0641C64.123 30.4061 64.5 29.5068 64.5 28.5682C64.5 27.6296 64.123 26.7303 63.4537 26.0723L52.7037 15.5041ZM31.2037 44.3595C32.5821 43.0044 32.601 40.7884 31.2459 39.41C29.8908 38.0315 27.6748 38.0126 26.2963 39.3677L15.5463 49.9359C14.877 50.5939 14.5 51.4932 14.5 52.4318C14.5 53.3704 14.877 54.2697 15.5463 54.9277L26.2963 65.4959C27.6748 66.851 29.8908 66.8321 31.2459 65.4537C32.601 64.0752 32.5821 61.8592 31.2037 60.5041L26.5527 55.9318H42.1875C44.1205 55.9318 45.6875 54.3648 45.6875 52.4318C45.6875 50.4988 44.1205 48.9318 42.1875 48.9318H26.5527L31.2037 44.3595Z" fill="white"/>
</svg>
