<svg width="20" height="20" viewBox="0 0 20 20" fill="none" xmlns="http://www.w3.org/2000/svg">
<g id="solid" opacity="0.3">
<path id="Vector" d="M18.6176 14.91L14.501 10.7936C13.6889 9.98154 12.4761 9.82336 11.4988 10.305L7.75138 6.55766V4.37467L3.25163 1L1.00176 3.24978L4.37657 7.74934H6.55965L10.3071 11.4966C9.829 12.4739 9.98368 13.6867 10.7957 14.4987L14.9123 18.6151C15.4256 19.1283 16.2552 19.1283 16.7649 18.6151L18.6176 16.7625C19.1273 16.2493 19.1273 15.4197 18.6176 14.91ZM12.6624 8.90938C13.6573 8.90938 14.5924 9.29606 15.2955 9.99912L15.9775 10.6811C16.5329 10.4385 17.0602 10.1011 17.5172 9.64408C18.8215 8.33991 19.2644 6.50493 18.8496 4.83869C18.7723 4.52231 18.375 4.41334 18.143 4.64535L15.5275 7.26072L13.1405 6.86349L12.7433 4.47661L15.3588 1.86124C15.5908 1.62924 15.4783 1.23201 15.1584 1.15116C13.4921 0.739869 11.657 1.18279 10.3563 2.48345C9.35442 3.4853 8.88335 4.80705 8.90796 6.12528L11.7941 9.01133C12.0789 8.94454 12.3742 8.90938 12.6624 8.90938ZM9.0099 11.7919L7.01666 9.79875L1.65914 15.1596C0.780286 16.0384 0.780286 17.4621 1.65914 18.3409C2.538 19.2197 3.96175 19.2197 4.84061 18.3409L9.18568 13.996C8.9185 13.2965 8.83765 12.5336 9.0099 11.7919ZM3.25163 17.5921C2.7876 17.5921 2.40793 17.2125 2.40793 16.7485C2.40793 16.2809 2.78408 15.9048 3.25163 15.9048C3.71918 15.9048 4.09534 16.2809 4.09534 16.7485C4.09534 17.2125 3.71918 17.5921 3.25163 17.5921Z" fill="#242424"/>
</g>
</svg>
