<svg width="21" height="20" viewBox="0 0 21 20" fill="none" xmlns="http://www.w3.org/2000/svg">
<g id="solid">
<path id="Vector" d="M19.1176 14.91L15.001 10.7936C14.1889 9.98154 12.9761 9.82336 11.9988 10.305L8.25138 6.55766V4.37467L3.75163 1L1.50176 3.24978L4.87657 7.74934H7.05965L10.8071 11.4966C10.329 12.4739 10.4837 13.6867 11.2957 14.4987L15.4123 18.6151C15.9256 19.1283 16.7552 19.1283 17.2649 18.6151L19.1176 16.7625C19.6273 16.2493 19.6273 15.4197 19.1176 14.91ZM13.1624 8.90938C14.1573 8.90938 15.0924 9.29606 15.7955 9.99912L16.4775 10.6811C17.0329 10.4385 17.5602 10.1011 18.0172 9.64408C19.3215 8.33991 19.7644 6.50493 19.3496 4.83869C19.2723 4.52231 18.875 4.41334 18.643 4.64535L16.0275 7.26072L13.6405 6.86349L13.2433 4.47661L15.8588 1.86124C16.0908 1.62924 15.9783 1.23201 15.6584 1.15116C13.9921 0.739869 12.157 1.18279 10.8563 2.48345C9.85442 3.4853 9.38335 4.80705 9.40796 6.12528L12.2941 9.01133C12.5789 8.94454 12.8742 8.90938 13.1624 8.90938ZM9.5099 11.7919L7.51666 9.79875L2.15914 15.1596C1.28029 16.0384 1.28029 17.4621 2.15914 18.3409C3.038 19.2197 4.46175 19.2197 5.34061 18.3409L9.68568 13.996C9.4185 13.2965 9.33765 12.5336 9.5099 11.7919ZM3.75163 17.5921C3.2876 17.5921 2.90793 17.2125 2.90793 16.7485C2.90793 16.2809 3.28408 15.9048 3.75163 15.9048C4.21918 15.9048 4.59534 16.2809 4.59534 16.7485C4.59534 17.2125 4.21918 17.5921 3.75163 17.5921Z" fill="white"/>
</g>
</svg>
