<svg width="20" height="20" viewBox="0 0 20 20" fill="none" xmlns="http://www.w3.org/2000/svg">
<g id="solid">
<g id="Vector">
<path fill-rule="evenodd" clip-rule="evenodd" d="M12.5457 2H5.8969C5.33025 1.9995 4.77785 2.17539 4.3182 2.50267C3.85854 2.82996 3.515 3.29199 3.3364 3.82311L2.1052 7.47111C1.7778 7.60641 1.4982 7.83429 1.30156 8.12609C1.10492 8.41789 1 8.76059 1 9.11111V13.5556C1 14.2116 1.3636 14.7787 1.9 15.0871V17.1111C1.9 17.3469 1.99482 17.573 2.1636 17.7397C2.33239 17.9064 2.56131 18 2.8 18H3.7C3.93869 18 4.16761 17.9064 4.3364 17.7397C4.50518 17.573 4.6 17.3469 4.6 17.1111V15.3333H9.70324C9.56676 15.1301 9.44101 14.918 9.32573 14.6979C8.89206 13.8962 8.91179 13.0116 9.26437 12.2553L9.26552 12.2529C9.62501 11.4845 10.25 11.0028 10.9088 10.7457C10.7936 10.6463 10.6841 10.5426 10.5811 10.4342L10.5803 10.4334C9.75544 9.56501 9.31344 8.49977 9.24718 7.33333H4.0483L5.0428 4.38578C5.10251 4.20871 5.21714 4.05469 5.37044 3.94556C5.52374 3.83644 5.70793 3.77773 5.8969 3.77778H10.4237C10.6118 3.56924 10.8231 3.37366 11.0581 3.19281C11.497 2.85507 11.9636 2.56923 12.4564 2.34914C12.4789 2.23018 12.5087 2.11366 12.5457 2ZM3.63324 12.565C3.79706 12.6321 3.97266 12.6666 4.15 12.6667C4.50816 12.6668 4.8517 12.5264 5.10504 12.2763C5.35839 12.0263 5.50078 11.6871 5.5009 11.3333C5.50102 10.9796 5.35885 10.6403 5.10568 10.3901C4.85251 10.1399 4.50906 9.99923 4.1509 9.99911C3.97356 9.99905 3.79794 10.0335 3.63407 10.1005C3.4702 10.1674 3.3213 10.2656 3.19586 10.3895C3.07041 10.5133 2.97089 10.6603 2.90297 10.8221C2.83505 10.9839 2.80006 11.1573 2.8 11.3324C2.79994 11.5076 2.83481 11.6811 2.90262 11.8429C2.97044 12.0047 3.06986 12.1518 3.19522 12.2757C3.32058 12.3996 3.46942 12.4979 3.63324 12.565Z" fill="#A7A7A7"/>
<path d="M11.09 13.7556C11.1503 13.8716 11.2138 13.9831 11.2806 14.0902L11.2752 14.0815C11.2103 13.9771 11.1486 13.8684 11.09 13.7556Z" fill="#A7A7A7"/>
<path d="M11.3031 14.1259L11.2977 14.1173C11.5019 14.4396 11.736 14.7207 12 14.9604C11.8104 14.7882 11.6362 14.5948 11.4774 14.38C11.4171 14.2983 11.359 14.2137 11.3031 14.1259Z" fill="#A7A7A7"/>
<path d="M15.3965 18C15.116 18 14.8807 17.9147 14.6906 17.744C14.5012 17.5739 14.4065 17.363 14.4065 17.1111V16.0889C13.664 15.9407 13.0122 15.6815 12.4512 15.3111C11.8902 14.9407 11.4365 14.4222 11.09 13.7556C10.9745 13.5482 10.9702 13.3298 11.0771 13.1004C11.1847 12.8705 11.3787 12.7037 11.6592 12.6C11.8902 12.5111 12.1295 12.515 12.377 12.6116C12.6245 12.7076 12.8142 12.8667 12.9462 13.0889C13.2267 13.5333 13.5815 13.8705 14.0105 14.1004C14.4395 14.3298 14.9675 14.4444 15.5945 14.4444C16.271 14.4444 16.8445 14.3076 17.3151 14.0338C17.785 13.7594 18.02 13.3333 18.02 12.7556C18.02 12.237 17.8385 11.8258 17.4755 11.5218C17.1125 11.2184 16.271 10.8741 14.951 10.4889C13.532 10.0889 12.5585 9.61126 12.0305 9.056C11.5025 8.50015 11.2385 7.82222 11.2385 7.02222C11.2385 6.05926 11.585 5.31111 12.278 4.77778C12.971 4.24444 13.6805 3.94074 14.4065 3.86667V2.88889C14.4065 2.63704 14.5012 2.42578 14.6906 2.25511C14.8807 2.08504 15.116 2 15.3965 2C15.677 2 15.9123 2.08504 16.1024 2.25511C16.2918 2.42578 16.3865 2.63704 16.3865 2.88889V3.86667C17.0135 3.95556 17.558 4.13718 18.02 4.41156C18.482 4.68533 18.8615 5.02222 19.1585 5.42222C19.307 5.61481 19.336 5.82963 19.2456 6.06667C19.1545 6.3037 18.9687 6.47407 18.6882 6.57778C18.4572 6.66667 18.218 6.67022 17.9705 6.58844C17.723 6.50726 17.492 6.36296 17.2775 6.15556C17.063 5.94815 16.8115 5.78874 16.5231 5.67733C16.234 5.56652 15.875 5.51111 15.446 5.51111C14.72 5.51111 14.1672 5.6557 13.7877 5.94489C13.4082 6.23348 13.2185 6.59259 13.2185 7.02222C13.2185 7.51111 13.466 7.8963 13.961 8.17778C14.456 8.45926 15.314 8.75556 16.535 9.06667C17.6735 9.36296 18.5358 9.83319 19.1219 10.4773C19.7073 11.1221 20 11.8667 20 12.7111C20 13.763 19.6535 14.563 18.9605 15.1111C18.2675 15.6593 17.4095 16 16.3865 16.1333V17.1111C16.3865 17.363 16.2918 17.5739 16.1024 17.744C15.9123 17.9147 15.677 18 15.3965 18Z" fill="#A7A7A7"/>
</g>
</g>
</svg>
