<svg width="48" height="36" viewBox="0 0 48 36" fill="none" xmlns="http://www.w3.org/2000/svg">
<g id="Vector">
<path fill-rule="evenodd" clip-rule="evenodd" d="M24.0012 32.9992C28.6572 32.9992 32.8212 30.8782 35.5722 27.5452C35.6951 27.386 35.8487 27.2531 36.0239 27.1545C36.1991 27.0558 36.3924 26.9934 36.5923 26.9709C36.7921 26.9484 36.9944 26.9664 37.1872 27.0237C37.3799 27.081 37.5592 27.1764 37.7144 27.3044C37.8695 27.4324 37.9973 27.5902 38.0902 27.7686C38.1831 27.9469 38.2392 28.1421 38.2551 28.3426C38.2711 28.5431 38.2465 28.7447 38.183 28.9355C38.1194 29.1263 38.0182 29.3024 37.8852 29.4532C35.6887 32.1127 32.7745 34.0852 29.4892 35.1363C26.204 36.1873 22.686 36.2727 19.3537 35.3822C16.0214 34.4916 13.0149 32.6627 10.692 30.113C8.36904 27.5632 6.82733 24.3999 6.25023 20.9992H9.30123C9.99387 24.3868 11.8351 27.4313 14.5136 29.6178C17.1921 31.8043 20.5436 32.9988 24.0012 32.9992Z" fill="#17B958"/>
<path d="M13.3992 20.9992H1.60324C1.46073 20.9992 1.32118 20.9585 1.20094 20.882C1.0807 20.8055 0.984744 20.6964 0.924306 20.5673C0.863868 20.4383 0.841447 20.2947 0.859677 20.1533C0.877906 20.012 0.936027 19.8787 1.02723 19.7692L6.92523 12.6892C6.99562 12.6048 7.0837 12.5369 7.18324 12.4903C7.28277 12.4437 7.39134 12.4196 7.50124 12.4196C7.61114 12.4196 7.7197 12.4437 7.81924 12.4903C7.91877 12.5369 8.00685 12.6048 8.07724 12.6892L13.9752 19.7692C14.0664 19.8787 14.1246 20.012 14.1428 20.1533C14.161 20.2947 14.1386 20.4383 14.0782 20.5673C14.0177 20.6964 13.9218 20.8055 13.8015 20.882C13.6813 20.9585 13.5417 20.9992 13.3992 20.9992Z" fill="#17B958"/>
<path d="M38.7012 14.9992C38.1333 12.2254 36.7922 9.66877 34.8328 7.62481C32.8734 5.58086 30.3757 4.13295 27.6283 3.44838C24.8809 2.7638 21.9959 2.87049 19.3065 3.75611C16.6172 4.64173 14.2333 6.27015 12.4302 8.45323C12.3074 8.61245 12.1538 8.74535 11.9785 8.84401C11.8033 8.94268 11.61 9.0051 11.4102 9.02757C11.2103 9.05004 11.008 9.03209 10.8153 8.9748C10.6225 8.91751 10.4432 8.82204 10.2881 8.69407C10.133 8.56611 10.0051 8.40825 9.91224 8.2299C9.81934 8.05154 9.76326 7.85633 9.74732 7.65586C9.73138 7.4554 9.75591 7.25377 9.81945 7.06297C9.883 6.87218 9.98426 6.69611 10.1172 6.54523C12.3138 3.88582 15.228 1.91327 18.5132 0.862202C21.7984 -0.188864 25.3164 -0.274218 28.6487 0.616299C31.9811 1.50681 34.9875 3.33572 37.3105 5.88549C39.6334 8.43526 41.1751 11.5986 41.7522 14.9992H38.7012L38.0005 14.9993L46.3992 14.9992C46.5417 14.9993 46.6813 15.04 46.8015 15.1165C46.9218 15.1929 47.0177 15.3021 47.0782 15.4312C47.1386 15.5602 47.161 15.7038 47.1428 15.8452C47.1246 15.9865 47.0664 16.1197 46.9752 16.2292L41.0772 23.3092C41.0068 23.3937 40.9188 23.4616 40.8192 23.5082C40.7197 23.5548 40.6111 23.5789 40.5012 23.5789C40.3913 23.5789 40.2828 23.5548 40.1832 23.5082C40.0837 23.4616 39.9956 23.3937 39.9252 23.3092L34.0272 16.2292C33.936 16.1197 33.8779 15.9865 33.8597 15.8452C33.8414 15.7038 33.8639 15.5602 33.9243 15.4312C33.9847 15.3021 34.0807 15.1929 34.2009 15.1165C34.3212 15.04 34.4607 14.9993 34.6032 14.9992L38.0005 14.9993L38.7012 14.9992Z" fill="#B91729"/>
</g>
</svg>
