<svg width="30" height="30" viewBox="0 0 30 30" fill="none" xmlns="http://www.w3.org/2000/svg">
<g id="solid">
<path id="Vector" d="M29.3122 7.4351C29.5218 6.75139 29.3122 6.25 28.3211 6.25H25.0379C24.2025 6.25 23.8207 6.68375 23.6111 7.16014C23.6111 7.16014 21.9418 11.158 19.5764 13.7502C18.8128 14.5045 18.464 14.7427 18.0478 14.7427C17.8397 14.7427 17.5373 14.5045 17.5373 13.8208V7.4351C17.5373 6.61464 17.2963 6.25 16.6001 6.25H11.441C10.92 6.25 10.6056 6.62935 10.6056 6.99105C10.6056 7.76739 11.7883 7.94677 11.9096 10.1346V14.8809C11.9096 15.9204 11.7195 16.1101 11.3003 16.1101C10.1879 16.1101 7.48112 12.0975 5.87471 7.5042C5.56181 6.6117 5.24592 6.25147 4.40753 6.25147H1.12584C0.18714 6.25147 0 6.68522 0 7.16161C0 8.01735 1.11236 12.2519 5.18154 17.8525C7.89433 21.6768 11.7135 23.75 15.1928 23.75C17.2783 23.75 17.5358 23.2898 17.5358 22.4958V19.6051C17.5358 18.6847 17.7349 18.4994 18.3951 18.4994C18.8802 18.4994 19.7156 18.7405 21.6634 20.5829C23.8881 22.7678 24.2564 23.7485 25.5065 23.7485H28.7882C29.7254 23.7485 30.194 23.2883 29.9245 22.3796C29.6295 21.4754 28.5666 20.1594 27.1563 18.6023C26.3898 17.7142 25.2445 16.7585 24.8956 16.2807C24.4091 15.6646 24.5498 15.3926 24.8956 14.8456C24.8971 14.8471 28.896 9.31566 29.3122 7.4351Z" fill="url(#paint0_linear_4628_80014)"/>
</g>
<defs>
<linearGradient id="paint0_linear_4628_80014" x1="0.61728" y1="6.34375" x2="29.273" y2="5.22227" gradientUnits="userSpaceOnUse">
<stop stop-color="#095DFF"/>
<stop offset="1" stop-color="#A953FF"/>
</linearGradient>
</defs>
</svg>
