<svg width="186" height="45" viewBox="0 0 186 45" fill="none" xmlns="http://www.w3.org/2000/svg">
<g id="&#208;&#177;&#208;&#190;&#209;&#128;&#208;&#176;&#208;&#178;&#209;&#130;&#208;&#190; &#208;&#187;&#208;&#190;&#208;&#179;&#208;&#190; RGB 1" clip-path="url(#clip0_300_33904)">
<g id="Layer_x0020_1">
<g id="_3044734689056">
<path id="Vector" d="M51.8458 14.8119C54.5684 14.8119 56.7534 15.6355 58.4006 17.2826C60.048 18.93 60.8716 21.0921 60.8716 23.7689C60.8716 26.5829 59.9792 28.8423 58.1948 30.5467C56.4101 32.2512 54.0423 33.1033 51.091 33.1033C47.9107 33.1033 45.4512 32.1254 43.7126 30.1691C41.9738 28.213 41.1044 25.4504 41.1044 21.8813C41.1044 17.7861 41.9909 14.5544 43.7641 12.1866C45.537 9.81847 48.2996 8.16569 52.0518 7.22752L58.2292 5.71762V10.625L52.0862 12.1351C49.0432 12.89 47.2473 14.3428 46.6983 16.4934C48.2311 15.3724 49.947 14.8119 51.8458 14.8119ZM47.6935 27.132C48.5856 28.0243 49.7125 28.4705 51.0737 28.4705C52.4351 28.4705 53.5617 28.0243 54.4541 27.132C55.3464 26.2399 55.7926 25.1074 55.7926 23.7345C55.7926 22.3619 55.3464 21.2235 54.4541 20.32C53.5617 19.4162 52.4407 18.9644 51.091 18.9644C50.1757 18.9644 49.3577 19.1702 48.6373 19.582C47.9166 19.9938 47.3561 20.5601 46.9555 21.2808C46.5552 22.0015 46.355 22.8195 46.355 23.7345C46.355 25.1074 46.8012 26.2399 47.6935 27.132ZM123.779 14.0224H127.52V32.5543H123.573L123.161 30.9071C121.468 32.3714 119.466 33.1033 117.155 33.1033C114.364 33.1033 112.048 32.171 110.206 30.3066C108.364 28.4419 107.444 26.1026 107.444 23.2883C107.444 20.4972 108.364 18.175 110.206 16.3218C112.048 14.4686 114.364 13.5421 117.155 13.5421C119.512 13.5421 121.537 14.297 123.23 15.8071L123.779 14.0224ZM113.947 26.9262C114.896 27.887 116.097 28.3676 117.55 28.3676C119.003 28.3676 120.21 27.887 121.171 26.9262C122.132 25.9653 122.612 24.7527 122.612 23.2883C122.612 21.8243 122.132 20.6116 121.171 19.6507C120.21 18.6899 119.009 18.2093 117.567 18.2093C116.606 18.2093 115.743 18.4324 114.976 18.8786C114.21 19.3248 113.609 19.9309 113.175 20.6974C112.74 21.4639 112.523 22.3275 112.523 23.2883C112.523 24.7527 112.997 25.9653 113.947 26.9262ZM73.1124 33.1033C71.2136 33.1033 69.4977 32.6801 67.9646 31.8336C66.4318 30.9871 65.2364 29.8146 64.3785 28.3161C63.5205 26.8175 63.0916 25.153 63.0916 23.3227C63.0916 20.5087 64.041 18.175 65.94 16.3218C67.8388 14.4686 70.2296 13.5421 73.1124 13.5421C75.9722 13.5421 78.3516 14.4686 80.2506 16.3218C82.1496 18.175 83.099 20.5087 83.099 23.3227C83.099 26.1138 82.1437 28.4419 80.2335 30.3066C78.323 32.171 75.9493 33.1033 73.1124 33.1033ZM73.1124 28.4017C74.5538 28.4017 75.7321 27.927 76.6471 26.9776C77.5623 26.0283 78.02 24.8099 78.02 23.3227C78.02 21.8357 77.5623 20.6174 76.6471 19.6678C75.7321 18.7184 74.5482 18.2437 73.0953 18.2437C71.6425 18.2437 70.4585 18.7184 69.5433 19.6678C68.6283 20.6174 68.1706 21.8357 68.1706 23.3227C68.1706 24.0549 68.2908 24.7412 68.531 25.3819C68.7711 26.0224 69.1086 26.56 69.5433 26.9947C69.978 27.4294 70.4985 27.7727 71.1049 28.0243C71.7112 28.2759 72.3802 28.4017 73.1124 28.4017ZM95.5799 13.5421C98.3711 13.5421 100.688 14.4686 102.529 16.3218C104.371 18.175 105.292 20.5087 105.292 23.3227C105.292 26.1368 104.365 28.4761 102.512 30.3407C100.659 32.2054 98.3484 33.1377 95.5799 33.1377C93.6809 33.1377 91.9765 32.623 90.4666 31.5934V39.2807H85.4561V14.0568H88.785L89.643 15.7384C91.2902 14.2743 93.2691 13.5421 95.5799 13.5421ZM91.5476 26.9606C92.497 27.9214 93.6982 28.4017 95.1511 28.4017C96.6037 28.4017 97.8105 27.9214 98.7716 26.9606C99.7325 25.9995 100.213 24.787 100.213 23.3227C100.213 22.3619 99.9955 21.4925 99.5608 20.7145C99.1261 19.9367 98.5256 19.3304 97.7591 18.8957C96.9928 18.461 96.129 18.2437 95.1682 18.2437C94.2073 18.2437 93.3379 18.461 92.5599 18.8957C91.7822 19.3304 91.1814 19.9367 90.7582 20.7145C90.3349 21.4925 90.1233 22.3619 90.1233 23.3227C90.1233 24.787 90.5982 25.9995 91.5476 26.9606ZM144.394 22.7393C145.24 23.1282 145.898 23.6945 146.367 24.4381C146.836 25.1818 147.07 26.0453 147.07 27.0291C147.07 28.6077 146.515 29.9289 145.406 30.9929C144.296 32.0566 142.895 32.5886 141.202 32.5886H131.078V14.0568H141.099C142.678 14.0568 143.976 14.4974 144.994 15.378C146.012 16.2589 146.521 17.3858 146.521 18.7584C146.521 19.582 146.333 20.3427 145.955 21.0407C145.577 21.7385 145.057 22.3046 144.394 22.7393ZM141.614 19.582C141.614 19.216 141.534 18.9015 141.374 18.6382C141.213 18.3751 140.99 18.1694 140.704 18.0206C140.418 17.8719 140.092 17.7976 139.726 17.7976H135.986V21.3667H139.726C140.275 21.3667 140.727 21.195 141.082 20.8517C141.436 20.5087 141.614 20.0854 141.614 19.582ZM139.966 28.6077C140.584 28.6077 141.076 28.4419 141.442 28.1101C141.808 27.7783 141.991 27.3207 141.991 26.7375C141.991 26.1541 141.808 25.6906 141.442 25.3475C141.076 25.0043 140.584 24.8326 139.966 24.8326H135.986V28.6077H139.966ZM165.145 14.0568V18.5526H159.105V32.5886H154.198V18.5526H148.158V14.0568H165.145ZM176.013 33.1033C174.115 33.1033 172.399 32.6801 170.866 31.8336C169.333 30.9871 168.137 29.8146 167.279 28.3161C166.422 26.8175 165.993 25.153 165.993 23.3227C165.993 20.5087 166.942 18.175 168.841 16.3218C170.74 14.4686 173.131 13.5421 176.013 13.5421C178.873 13.5421 181.253 14.4686 183.152 16.3218C185.051 18.175 186 20.5087 186 23.3227C186 26.1138 185.045 28.4419 183.135 30.3066C181.224 32.171 178.85 33.1033 176.013 33.1033ZM176.013 28.4017C177.455 28.4017 178.633 27.927 179.548 26.9776C180.463 26.0283 180.921 24.8099 180.921 23.3227C180.921 21.8357 180.463 20.6174 179.548 19.6678C178.633 18.7184 177.449 18.2437 175.996 18.2437C174.543 18.2437 173.36 18.7184 172.444 19.6678C171.529 20.6174 171.072 21.8357 171.072 23.3227C171.072 24.0549 171.192 24.7412 171.432 25.3819C171.672 26.0224 172.01 26.56 172.444 26.9947C172.879 27.4294 173.4 27.7727 174.006 28.0243C174.612 28.2759 175.281 28.4017 176.013 28.4017Z" fill="#2B3842"/>
<path id="Vector_2" d="M15.909 29.1631C12.2286 29.1631 9.24414 26.1803 9.24414 22.4996C9.24414 18.818 12.2286 15.8352 15.909 15.8352C19.5892 15.8352 22.5735 18.818 22.5735 22.4996C22.5735 26.1803 19.5892 29.1631 15.909 29.1631Z" fill="url(#paint0_linear_300_33904)"/>
<path id="Vector_3" d="M0 6.59031C4.39338 2.19693 10.1515 0 15.9088 0C21.6662 0 27.4243 2.19693 31.8177 6.59031L24.8188 13.5891C22.3593 11.1296 19.1339 9.89938 15.9088 9.89938C12.6837 9.89938 9.45836 11.1296 6.99883 13.5891L0 6.59031H0Z" fill="url(#paint1_linear_300_33904)"/>
<path id="Vector_4" d="M31.8177 38.4079C27.4243 42.8013 21.6662 44.9983 15.9088 44.9983C10.1517 44.9983 4.39362 42.8011 0 38.4079L6.99883 31.4091C9.45859 33.8689 12.6839 35.0989 15.9088 35.0989C19.1339 35.0989 22.3593 33.8686 24.8188 31.4091L31.8177 38.4079Z" fill="url(#paint2_linear_300_33904)"/>
<g id="Mask group">
<mask id="mask0_300_33904" style="mask-type:alpha" maskUnits="userSpaceOnUse" x="0" y="31" width="32" height="14">
<path id="Vector_5" d="M31.8177 38.4079C27.4243 42.8013 21.6662 44.9983 15.9088 44.9983C10.1517 44.9983 4.39362 42.8011 0 38.4079L6.99883 31.4091C9.45859 33.8689 12.6839 35.0989 15.9088 35.0989C19.1339 35.0989 22.3593 33.8686 24.8188 31.4091L31.8177 38.4079Z" fill="url(#paint3_linear_300_33904)"/>
</mask>
<g mask="url(#mask0_300_33904)">
<g id="Rectangle 362" filter="url(#filter0_f_300_33904)">
<rect x="28.0295" y="-1.79544" width="17.0992" height="66.201" transform="rotate(44.6602 28.0295 -1.79544)" fill="url(#paint4_linear_300_33904)"/>
</g>
</g>
</g>
<g id="Mask group_2">
<mask id="mask1_300_33904" style="mask-type:alpha" maskUnits="userSpaceOnUse" x="0" y="0" width="32" height="14">
<path id="Vector_6" d="M0 6.59031C4.39338 2.19693 10.1515 0 15.9088 0C21.6662 0 27.4243 2.19693 31.8177 6.59031L24.8188 13.5891C22.3593 11.1296 19.1339 9.89938 15.9088 9.89938C12.6837 9.89938 9.45836 11.1296 6.99883 13.5891L0 6.59031H0Z" fill="url(#paint5_linear_300_33904)"/>
</mask>
<g mask="url(#mask1_300_33904)">
<g id="Rectangle 362_2" filter="url(#filter1_f_300_33904)">
<rect x="32.226" y="-5.09921" width="17.0992" height="66.201" transform="rotate(42.2383 32.226 -5.09921)" fill="url(#paint6_linear_300_33904)"/>
</g>
</g>
</g>
</g>
</g>
</g>
<defs>
<filter id="filter0_f_300_33904" x="-24.6903" y="-7.98245" width="71.0693" height="71.4811" filterUnits="userSpaceOnUse" color-interpolation-filters="sRGB">
<feFlood flood-opacity="0" result="BackgroundImageFix"/>
<feBlend mode="normal" in="SourceGraphic" in2="BackgroundImageFix" result="shape"/>
<feGaussianBlur stdDeviation="3.09351" result="effect1_foregroundBlur_300_33904"/>
</filter>
<filter id="filter1_f_300_33904" x="-18.4624" y="-11.2862" width="69.5348" height="72.8807" filterUnits="userSpaceOnUse" color-interpolation-filters="sRGB">
<feFlood flood-opacity="0" result="BackgroundImageFix"/>
<feBlend mode="normal" in="SourceGraphic" in2="BackgroundImageFix" result="shape"/>
<feGaussianBlur stdDeviation="3.09351" result="effect1_foregroundBlur_300_33904"/>
</filter>
<linearGradient id="paint0_linear_300_33904" x1="22.5532" y1="21.9125" x2="9.92412" y2="20.7591" gradientUnits="userSpaceOnUse">
<stop stop-color="#A854FF"/>
<stop offset="0.580392" stop-color="#6058FF"/>
<stop offset="1" stop-color="#185CFF"/>
</linearGradient>
<linearGradient id="paint1_linear_300_33904" x1="31.7693" y1="6.19639" x2="2.70062" y2="-0.0189338" gradientUnits="userSpaceOnUse">
<stop stop-color="#A854FF"/>
<stop offset="0.580392" stop-color="#6058FF"/>
<stop offset="1" stop-color="#185CFF"/>
</linearGradient>
<linearGradient id="paint2_linear_300_33904" x1="31.7693" y1="37.6055" x2="2.70062" y2="31.3902" gradientUnits="userSpaceOnUse">
<stop stop-color="#A854FF"/>
<stop offset="0.580392" stop-color="#6058FF"/>
<stop offset="1" stop-color="#185CFF"/>
</linearGradient>
<linearGradient id="paint3_linear_300_33904" x1="31.7693" y1="37.6055" x2="2.70062" y2="31.3902" gradientUnits="userSpaceOnUse">
<stop stop-color="#A854FF"/>
<stop offset="0.580392" stop-color="#6058FF"/>
<stop offset="1" stop-color="#185CFF"/>
</linearGradient>
<linearGradient id="paint4_linear_300_33904" x1="28.0295" y1="36.8734" x2="45.1287" y2="36.8734" gradientUnits="userSpaceOnUse">
<stop stop-color="white" stop-opacity="0"/>
<stop offset="0.496936" stop-color="white"/>
<stop offset="1" stop-color="white" stop-opacity="0"/>
</linearGradient>
<linearGradient id="paint5_linear_300_33904" x1="31.7693" y1="6.19639" x2="2.70062" y2="-0.0189338" gradientUnits="userSpaceOnUse">
<stop stop-color="#A854FF"/>
<stop offset="0.580392" stop-color="#6058FF"/>
<stop offset="1" stop-color="#185CFF"/>
</linearGradient>
<linearGradient id="paint6_linear_300_33904" x1="32.226" y1="33.5696" x2="49.3251" y2="33.5696" gradientUnits="userSpaceOnUse">
<stop stop-color="white" stop-opacity="0"/>
<stop offset="0.496936" stop-color="white"/>
<stop offset="1" stop-color="white" stop-opacity="0"/>
</linearGradient>
<clipPath id="clip0_300_33904">
<rect width="186" height="44.9983" fill="white"/>
</clipPath>
</defs>
</svg>
